solid OpenSCAD_Model
  facet normal 0 0 1
    outer loop
      vertex 25.5223 1.79387 6.35
      vertex 25.5905 0 6.35
      vertex 25.54 1.60684 6.35
    endloop
  endfacet
  facet normal 0 0 1
    outer loop
      vertex 25.5905 0 6.35
      vertex 25.5223 1.79387 6.35
      vertex 25.572 -0.587375 6.35
    endloop
  endfacet
  facet normal -0 0 1
    outer loop
      vertex -25.5223 1.79387 6.35
      vertex 25.572 -0.587375 6.35
      vertex 25.5223 1.79387 6.35
    endloop
  endfacet
  facet normal 0 0 1
    outer loop
      vertex -25.5905 0 6.35
      vertex -25.5223 1.79387 6.35
      vertex -25.54 1.60684 6.35
    endloop
  endfacet
  facet normal 0 0 1
    outer loop
      vertex -25.5223 1.79387 6.35
      vertex -25.572 -0.587375 6.35
      vertex 25.572 -0.587375 6.35
    endloop
  endfacet
  facet normal 0 0 1
    outer loop
      vertex -25.5223 1.79387 6.35
      vertex -25.5905 0 6.35
      vertex -25.572 -0.587375 6.35
    endloop
  endfacet
  facet normal 0 0 1
    outer loop
      vertex 7.9079 24.338 6.35
      vertex 10.7338 23.2251 6.35
      vertex 9.42049 23.7934 6.35
    endloop
  endfacet
  facet normal 0 0 1
    outer loop
      vertex 6.3641 24.7865 6.35
      vertex 10.7338 23.2251 6.35
      vertex 7.9079 24.338 6.35
    endloop
  endfacet
  facet normal 0 0 1
    outer loop
      vertex 4.79518 25.1372 6.35
      vertex 10.7338 23.2251 6.35
      vertex 6.3641 24.7865 6.35
    endloop
  endfacet
  facet normal 0 0 1
    outer loop
      vertex 3.20734 25.3887 6.35
      vertex 10.7338 23.2251 6.35
      vertex 4.79518 25.1372 6.35
    endloop
  endfacet
  facet normal 0 0 1
    outer loop
      vertex 1.60684 25.54 6.35
      vertex 10.7338 23.2251 6.35
      vertex 3.20734 25.3887 6.35
    endloop
  endfacet
  facet normal 0 0 1
    outer loop
      vertex 0 25.5905 6.35
      vertex 10.7338 23.2251 6.35
      vertex 1.60684 25.54 6.35
    endloop
  endfacet
  facet normal -0 0 1
    outer loop
      vertex -1.60684 25.54 6.35
      vertex 10.7338 23.2251 6.35
      vertex 0 25.5905 6.35
    endloop
  endfacet
  facet normal -0 0 1
    outer loop
      vertex -3.20734 25.3887 6.35
      vertex 10.7338 23.2251 6.35
      vertex -1.60684 25.54 6.35
    endloop
  endfacet
  facet normal -0 0 1
    outer loop
      vertex -4.79518 25.1372 6.35
      vertex 10.7338 23.2251 6.35
      vertex -3.20734 25.3887 6.35
    endloop
  endfacet
  facet normal -0 0 1
    outer loop
      vertex -6.3641 24.7865 6.35
      vertex 10.7338 23.2251 6.35
      vertex -4.79518 25.1372 6.35
    endloop
  endfacet
  facet normal -0 0 1
    outer loop
      vertex -7.9079 24.338 6.35
      vertex 10.7338 23.2251 6.35
      vertex -6.3641 24.7865 6.35
    endloop
  endfacet
  facet normal -0 0 1
    outer loop
      vertex -9.42049 23.7934 6.35
      vertex 10.7338 23.2251 6.35
      vertex -7.9079 24.338 6.35
    endloop
  endfacet
  facet normal 0 0 1
    outer loop
      vertex 10.7338 23.2251 6.35
      vertex -9.42049 23.7934 6.35
      vertex -10.7338 23.2251 6.35
    endloop
  endfacet
  facet normal 0 0 1
    outer loop
      vertex 16.312 19.7178 6.35
      vertex 17.7099 18.4626 6.35
      vertex 17.5179 18.6547 6.35
    endloop
  endfacet
  facet normal 0 0 1
    outer loop
      vertex 14.8346 20.8439 6.35
      vertex 16.312 19.7178 6.35
      vertex 15.0417 20.7031 6.35
    endloop
  endfacet
  facet normal 0 0 1
    outer loop
      vertex 16.312 19.7178 6.35
      vertex 14.8346 20.8439 6.35
      vertex 17.7099 18.4626 6.35
    endloop
  endfacet
  facet normal -0 0 1
    outer loop
      vertex -14.8346 20.8439 6.35
      vertex 17.7099 18.4626 6.35
      vertex 14.8346 20.8439 6.35
    endloop
  endfacet
  facet normal 0 0 1
    outer loop
      vertex -16.312 19.7178 6.35
      vertex -14.8346 20.8439 6.35
      vertex -15.0417 20.7031 6.35
    endloop
  endfacet
  facet normal 0 0 1
    outer loop
      vertex -14.8346 20.8439 6.35
      vertex -16.312 19.7178 6.35
      vertex 17.7099 18.4626 6.35
    endloop
  endfacet
  facet normal 0 0 1
    outer loop
      vertex -17.7099 18.4626 6.35
      vertex -16.312 19.7178 6.35
      vertex -17.5179 18.6547 6.35
    endloop
  endfacet
  facet normal 0 0 1
    outer loop
      vertex -16.312 19.7178 6.35
      vertex -17.7099 18.4626 6.35
      vertex 17.7099 18.4626 6.35
    endloop
  endfacet
  facet normal 0 0 1
    outer loop
      vertex 18.8855 -17.2561 6.35
      vertex 17.5179 -18.6547 6.35
      vertex 18.6547 -17.5179 6.35
    endloop
  endfacet
  facet normal 0 0 1
    outer loop
      vertex 18.8855 -17.2561 6.35
      vertex 16.4032 -19.6374 6.35
      vertex 17.5179 -18.6547 6.35
    endloop
  endfacet
  facet normal 0 0 1
    outer loop
      vertex 18.8855 -17.2561 6.35
      vertex -16.4032 -19.6374 6.35
      vertex 16.4032 -19.6374 6.35
    endloop
  endfacet
  facet normal 0 0 1
    outer loop
      vertex 18.8855 -17.2561 6.35
      vertex -17.5179 -18.6547 6.35
      vertex -16.4032 -19.6374 6.35
    endloop
  endfacet
  facet normal -0 0 1
    outer loop
      vertex -18.8855 -17.2561 6.35
      vertex -17.5179 -18.6547 6.35
      vertex 18.8855 -17.2561 6.35
    endloop
  endfacet
  facet normal 0 0 1
    outer loop
      vertex -17.5179 -18.6547 6.35
      vertex -18.8855 -17.2561 6.35
      vertex -18.6547 -17.5179 6.35
    endloop
  endfacet
  facet normal 0 0 1
    outer loop
      vertex 23.155 10.8959 6.35
      vertex 23.9673 8.93762 6.35
      vertex 23.7934 9.42049 6.35
    endloop
  endfacet
  facet normal 0 0 1
    outer loop
      vertex 22.9395 11.3189 6.35
      vertex 23.9673 8.93762 6.35
      vertex 23.155 10.8959 6.35
    endloop
  endfacet
  facet normal -0 0 1
    outer loop
      vertex -22.9395 11.3189 6.35
      vertex 23.9673 8.93762 6.35
      vertex 22.9395 11.3189 6.35
    endloop
  endfacet
  facet normal 0 0 1
    outer loop
      vertex -23.9673 8.93762 6.35
      vertex -22.9395 11.3189 6.35
      vertex -23.155 10.8959 6.35
    endloop
  endfacet
  facet normal 0 0 1
    outer loop
      vertex -23.9673 8.93762 6.35
      vertex -23.155 10.8959 6.35
      vertex -23.7934 9.42049 6.35
    endloop
  endfacet
  facet normal 0 0 1
    outer loop
      vertex -22.9395 11.3189 6.35
      vertex -23.9673 8.93762 6.35
      vertex 23.9673 8.93762 6.35
    endloop
  endfacet
  facet normal 0 0 1
    outer loop
      vertex 24.3894 -7.73112 6.35
      vertex 23.7934 -9.42049 6.35
      vertex 24.338 -7.9079 6.35
    endloop
  endfacet
  facet normal 0 0 1
    outer loop
      vertex 24.3894 -7.73112 6.35
      vertex 23.494 -10.1124 6.35
      vertex 23.7934 -9.42049 6.35
    endloop
  endfacet
  facet normal 0 0 1
    outer loop
      vertex 24.3894 -7.73112 6.35
      vertex -23.494 -10.1124 6.35
      vertex 23.494 -10.1124 6.35
    endloop
  endfacet
  facet normal -0 0 1
    outer loop
      vertex -24.3894 -7.73112 6.35
      vertex -23.494 -10.1124 6.35
      vertex 24.3894 -7.73112 6.35
    endloop
  endfacet
  facet normal 0 0 1
    outer loop
      vertex -23.494 -10.1124 6.35
      vertex -24.3894 -7.73112 6.35
      vertex -23.7934 -9.42049 6.35
    endloop
  endfacet
  facet normal 0 0 1
    outer loop
      vertex -23.7934 -9.42049 6.35
      vertex -24.3894 -7.73112 6.35
      vertex -24.338 -7.9079 6.35
    endloop
  endfacet
  facet normal 0 0 1
    outer loop
      vertex 13.0157 -22.0186 6.35
      vertex 10.8959 -23.155 6.35
      vertex 12.3283 -22.4251 6.35
    endloop
  endfacet
  facet normal 0 0 1
    outer loop
      vertex 13.0157 -22.0186 6.35
      vertex 9.42049 -23.7934 6.35
      vertex 10.8959 -23.155 6.35
    endloop
  endfacet
  facet normal 0 0 1
    outer loop
      vertex 7.69496 -24.3999 6.35
      vertex 9.42049 -23.7934 6.35
      vertex 13.0157 -22.0186 6.35
    endloop
  endfacet
  facet normal 0 0 1
    outer loop
      vertex 9.42049 -23.7934 6.35
      vertex 7.69496 -24.3999 6.35
      vertex 7.9079 -24.338 6.35
    endloop
  endfacet
  facet normal 0 0 1
    outer loop
      vertex 13.0157 -22.0186 6.35
      vertex -7.69496 -24.3999 6.35
      vertex 7.69496 -24.3999 6.35
    endloop
  endfacet
  facet normal -0 0 1
    outer loop
      vertex -9.42049 -23.7934 6.35
      vertex -7.69496 -24.3999 6.35
      vertex 13.0157 -22.0186 6.35
    endloop
  endfacet
  facet normal 0 0 1
    outer loop
      vertex -7.69496 -24.3999 6.35
      vertex -9.42049 -23.7934 6.35
      vertex -7.9079 -24.338 6.35
    endloop
  endfacet
  facet normal 0 0 1
    outer loop
      vertex 13.0157 -22.0186 6.35
      vertex -10.8959 -23.155 6.35
      vertex -9.42049 -23.7934 6.35
    endloop
  endfacet
  facet normal -0 0 1
    outer loop
      vertex -13.0157 -22.0186 6.35
      vertex -10.8959 -23.155 6.35
      vertex 13.0157 -22.0186 6.35
    endloop
  endfacet
  facet normal 0 0 1
    outer loop
      vertex -10.8959 -23.155 6.35
      vertex -13.0157 -22.0186 6.35
      vertex -12.3283 -22.4251 6.35
    endloop
  endfacet
  facet normal 0 0 1
    outer loop
      vertex 20.7031 15.0417 6.35
      vertex 21.6138 13.7001 6.35
      vertex 21.6068 13.7121 6.35
    endloop
  endfacet
  facet normal 0 0 1
    outer loop
      vertex 19.8967 16.0814 6.35
      vertex 21.6138 13.7001 6.35
      vertex 20.7031 15.0417 6.35
    endloop
  endfacet
  facet normal -0 0 1
    outer loop
      vertex -19.8967 16.0814 6.35
      vertex 21.6138 13.7001 6.35
      vertex 19.8967 16.0814 6.35
    endloop
  endfacet
  facet normal -0 0 1
    outer loop
      vertex -20.7031 15.0417 6.35
      vertex 21.6138 13.7001 6.35
      vertex -19.8967 16.0814 6.35
    endloop
  endfacet
  facet normal 0 0 1
    outer loop
      vertex -21.6138 13.7001 6.35
      vertex -20.7031 15.0417 6.35
      vertex -21.6068 13.7121 6.35
    endloop
  endfacet
  facet normal 0 0 1
    outer loop
      vertex -20.7031 15.0417 6.35
      vertex -21.6138 13.7001 6.35
      vertex 21.6138 13.7001 6.35
    endloop
  endfacet
  facet normal 0 0 1
    outer loop
      vertex 24.7307 6.55637 6.35
      vertex 25.1372 4.79518 6.35
      vertex 24.7865 6.3641 6.35
    endloop
  endfacet
  facet normal 0 0 1
    outer loop
      vertex 25.1372 4.79518 6.35
      vertex 24.7307 6.55637 6.35
      vertex 25.2354 4.17512 6.35
    endloop
  endfacet
  facet normal -0 0 1
    outer loop
      vertex -24.7307 6.55637 6.35
      vertex 25.2354 4.17512 6.35
      vertex 24.7307 6.55637 6.35
    endloop
  endfacet
  facet normal 0 0 1
    outer loop
      vertex -25.1372 4.79518 6.35
      vertex -24.7307 6.55637 6.35
      vertex -24.7865 6.3641 6.35
    endloop
  endfacet
  facet normal 0 0 1
    outer loop
      vertex -24.7307 6.55637 6.35
      vertex -25.1372 4.79518 6.35
      vertex -25.2354 4.17512 6.35
    endloop
  endfacet
  facet normal 0 0 1
    outer loop
      vertex -24.7307 6.55637 6.35
      vertex -25.2354 4.17512 6.35
      vertex 25.2354 4.17512 6.35
    endloop
  endfacet
  facet normal 0 0 1
    outer loop
      vertex 22.3274 -12.4936 6.35
      vertex 20.8165 -14.8749 6.35
      vertex 21.6068 -13.7121 6.35
    endloop
  endfacet
  facet normal 0 0 1
    outer loop
      vertex 22.3274 -12.4936 6.35
      vertex -20.8165 -14.8749 6.35
      vertex 20.8165 -14.8749 6.35
    endloop
  endfacet
  facet normal 0 0 1
    outer loop
      vertex 22.3274 -12.4936 6.35
      vertex -21.6068 -13.7121 6.35
      vertex -20.8165 -14.8749 6.35
    endloop
  endfacet
  facet normal 0 -0 1
    outer loop
      vertex -21.6068 -13.7121 6.35
      vertex 22.3274 -12.4936 6.35
      vertex -22.3274 -12.4936 6.35
    endloop
  endfacet
  facet normal 0 0 1
    outer loop
      vertex 25.4113 -2.96862 6.35
      vertex 25.1372 -4.79518 6.35
      vertex 25.3887 -3.20734 6.35
    endloop
  endfacet
  facet normal 0 0 1
    outer loop
      vertex 25.4113 -2.96862 6.35
      vertex 25.0132 -5.34987 6.35
      vertex 25.1372 -4.79518 6.35
    endloop
  endfacet
  facet normal 0 0 1
    outer loop
      vertex 25.4113 -2.96862 6.35
      vertex -25.0132 -5.34987 6.35
      vertex 25.0132 -5.34987 6.35
    endloop
  endfacet
  facet normal -0 0 1
    outer loop
      vertex -25.4113 -2.96862 6.35
      vertex -25.0132 -5.34987 6.35
      vertex 25.4113 -2.96862 6.35
    endloop
  endfacet
  facet normal 0 0 1
    outer loop
      vertex -25.0132 -5.34987 6.35
      vertex -25.4113 -2.96862 6.35
      vertex -25.1372 -4.79518 6.35
    endloop
  endfacet
  facet normal 0 0 1
    outer loop
      vertex -25.1372 -4.79518 6.35
      vertex -25.4113 -2.96862 6.35
      vertex -25.3887 -3.20734 6.35
    endloop
  endfacet
  facet normal 0 0 1
    outer loop
      vertex 7.69496 -24.3999 5.55625
      vertex 4.79518 -25.1372 5.55625
      vertex 6.3641 -24.7865 5.55625
    endloop
  endfacet
  facet normal 0 0 1
    outer loop
      vertex 7.69496 -24.3999 5.55625
      vertex 3.20734 -25.3887 5.55625
      vertex 4.79518 -25.1372 5.55625
    endloop
  endfacet
  facet normal 0 0 1
    outer loop
      vertex 7.69496 -24.3999 5.55625
      vertex 1.60684 -25.54 5.55625
      vertex 3.20734 -25.3887 5.55625
    endloop
  endfacet
  facet normal 0 0 1
    outer loop
      vertex 7.69496 -24.3999 5.55625
      vertex 0 -25.5905 5.55625
      vertex 1.60684 -25.54 5.55625
    endloop
  endfacet
  facet normal 0 0 1
    outer loop
      vertex 7.69496 -24.3999 5.55625
      vertex -1.60684 -25.54 5.55625
      vertex 0 -25.5905 5.55625
    endloop
  endfacet
  facet normal 0 0 1
    outer loop
      vertex 7.69496 -24.3999 5.55625
      vertex -3.20734 -25.3887 5.55625
      vertex -1.60684 -25.54 5.55625
    endloop
  endfacet
  facet normal 0 0 1
    outer loop
      vertex 7.69496 -24.3999 5.55625
      vertex -4.79518 -25.1372 5.55625
      vertex -3.20734 -25.3887 5.55625
    endloop
  endfacet
  facet normal 0 0 1
    outer loop
      vertex 7.69496 -24.3999 5.55625
      vertex -6.3641 -24.7865 5.55625
      vertex -4.79518 -25.1372 5.55625
    endloop
  endfacet
  facet normal 0 -0 1
    outer loop
      vertex -6.3641 -24.7865 5.55625
      vertex 7.69496 -24.3999 5.55625
      vertex -7.69496 -24.3999 5.55625
    endloop
  endfacet
  facet normal 0 -1 0
    outer loop
      vertex -7.69496 -24.3999 5.55625
      vertex 7.69496 -24.3999 6.35
      vertex -7.69496 -24.3999 6.35
    endloop
  endfacet
  facet normal 0 -1 -0
    outer loop
      vertex 7.69496 -24.3999 6.35
      vertex -7.69496 -24.3999 5.55625
      vertex 7.69496 -24.3999 5.55625
    endloop
  endfacet
  facet normal 0 0 1
    outer loop
      vertex 16.4032 -19.6374 5.55625
      vertex 15.0417 -20.7031 5.55625
      vertex 16.312 -19.7178 5.55625
    endloop
  endfacet
  facet normal 0 0 1
    outer loop
      vertex 13.0157 -22.0186 5.55625
      vertex 15.0417 -20.7031 5.55625
      vertex 16.4032 -19.6374 5.55625
    endloop
  endfacet
  facet normal 0 0 1
    outer loop
      vertex 15.0417 -20.7031 5.55625
      vertex 13.0157 -22.0186 5.55625
      vertex 13.7121 -21.6068 5.55625
    endloop
  endfacet
  facet normal 0 0 1
    outer loop
      vertex 16.4032 -19.6374 5.55625
      vertex -13.0157 -22.0186 5.55625
      vertex 13.0157 -22.0186 5.55625
    endloop
  endfacet
  facet normal -0 0 1
    outer loop
      vertex -15.0417 -20.7031 5.55625
      vertex -13.0157 -22.0186 5.55625
      vertex 16.4032 -19.6374 5.55625
    endloop
  endfacet
  facet normal 0 0 1
    outer loop
      vertex -13.0157 -22.0186 5.55625
      vertex -15.0417 -20.7031 5.55625
      vertex -13.7121 -21.6068 5.55625
    endloop
  endfacet
  facet normal -0 0 1
    outer loop
      vertex -16.4032 -19.6374 5.55625
      vertex -15.0417 -20.7031 5.55625
      vertex 16.4032 -19.6374 5.55625
    endloop
  endfacet
  facet normal 0 0 1
    outer loop
      vertex -15.0417 -20.7031 5.55625
      vertex -16.4032 -19.6374 5.55625
      vertex -16.312 -19.7178 5.55625
    endloop
  endfacet
  facet normal 0 1 -0
    outer loop
      vertex 13.0157 -22.0186 5.55625
      vertex -13.0157 -22.0186 6.35
      vertex 13.0157 -22.0186 6.35
    endloop
  endfacet
  facet normal 0 1 0
    outer loop
      vertex -13.0157 -22.0186 6.35
      vertex 13.0157 -22.0186 5.55625
      vertex -13.0157 -22.0186 5.55625
    endloop
  endfacet
  facet normal 0 -1 0
    outer loop
      vertex -16.4032 -19.6374 5.55625
      vertex 16.4032 -19.6374 6.35
      vertex -16.4032 -19.6374 6.35
    endloop
  endfacet
  facet normal 0 -1 -0
    outer loop
      vertex 16.4032 -19.6374 6.35
      vertex -16.4032 -19.6374 5.55625
      vertex 16.4032 -19.6374 5.55625
    endloop
  endfacet
  facet normal 0 0 1
    outer loop
      vertex 20.8165 -14.8749 5.55625
      vertex 19.7178 -16.312 5.55625
      vertex 20.7031 -15.0417 5.55625
    endloop
  endfacet
  facet normal 0 0 1
    outer loop
      vertex 20.8165 -14.8749 5.55625
      vertex 18.8855 -17.2561 5.55625
      vertex 19.7178 -16.312 5.55625
    endloop
  endfacet
  facet normal 0 0 1
    outer loop
      vertex 20.8165 -14.8749 5.55625
      vertex -18.8855 -17.2561 5.55625
      vertex 18.8855 -17.2561 5.55625
    endloop
  endfacet
  facet normal 0 0 1
    outer loop
      vertex 20.8165 -14.8749 5.55625
      vertex -19.7178 -16.312 5.55625
      vertex -18.8855 -17.2561 5.55625
    endloop
  endfacet
  facet normal -0 0 1
    outer loop
      vertex -20.8165 -14.8749 5.55625
      vertex -19.7178 -16.312 5.55625
      vertex 20.8165 -14.8749 5.55625
    endloop
  endfacet
  facet normal 0 0 1
    outer loop
      vertex -19.7178 -16.312 5.55625
      vertex -20.8165 -14.8749 5.55625
      vertex -20.7031 -15.0417 5.55625
    endloop
  endfacet
  facet normal 0 1 -0
    outer loop
      vertex 18.8855 -17.2561 5.55625
      vertex -18.8855 -17.2561 6.35
      vertex 18.8855 -17.2561 6.35
    endloop
  endfacet
  facet normal 0 1 0
    outer loop
      vertex -18.8855 -17.2561 6.35
      vertex 18.8855 -17.2561 5.55625
      vertex -18.8855 -17.2561 5.55625
    endloop
  endfacet
  facet normal 0 -1 0
    outer loop
      vertex -20.8165 -14.8749 5.55625
      vertex 20.8165 -14.8749 6.35
      vertex -20.8165 -14.8749 6.35
    endloop
  endfacet
  facet normal 0 -1 -0
    outer loop
      vertex 20.8165 -14.8749 6.35
      vertex -20.8165 -14.8749 5.55625
      vertex 20.8165 -14.8749 5.55625
    endloop
  endfacet
  facet normal 0 -1 0
    outer loop
      vertex -23.494 -10.1124 5.55625
      vertex 23.494 -10.1124 6.35
      vertex -23.494 -10.1124 6.35
    endloop
  endfacet
  facet normal 0 -1 -0
    outer loop
      vertex 23.494 -10.1124 6.35
      vertex -23.494 -10.1124 5.55625
      vertex 23.494 -10.1124 5.55625
    endloop
  endfacet
  facet normal 0 0 1
    outer loop
      vertex 22.3274 -12.4936 5.55625
      vertex 23.155 -10.8959 5.55625
      vertex 23.494 -10.1124 5.55625
    endloop
  endfacet
  facet normal 0 0 1
    outer loop
      vertex 23.155 -10.8959 5.55625
      vertex 22.3274 -12.4936 5.55625
      vertex 22.4251 -12.3283 5.55625
    endloop
  endfacet
  facet normal 0 0 1
    outer loop
      vertex 23.494 -10.1124 5.55625
      vertex -22.3274 -12.4936 5.55625
      vertex 22.3274 -12.4936 5.55625
    endloop
  endfacet
  facet normal -0 0 1
    outer loop
      vertex -23.494 -10.1124 5.55625
      vertex -22.3274 -12.4936 5.55625
      vertex 23.494 -10.1124 5.55625
    endloop
  endfacet
  facet normal -0 -0 1
    outer loop
      vertex -23.155 -10.8959 5.55625
      vertex -22.3274 -12.4936 5.55625
      vertex -23.494 -10.1124 5.55625
    endloop
  endfacet
  facet normal 0 0 1
    outer loop
      vertex -22.3274 -12.4936 5.55625
      vertex -23.155 -10.8959 5.55625
      vertex -22.4251 -12.3283 5.55625
    endloop
  endfacet
  facet normal 0 1 -0
    outer loop
      vertex 22.3274 -12.4936 5.55625
      vertex -22.3274 -12.4936 6.35
      vertex 22.3274 -12.4936 6.35
    endloop
  endfacet
  facet normal 0 1 0
    outer loop
      vertex -22.3274 -12.4936 6.35
      vertex 22.3274 -12.4936 5.55625
      vertex -22.3274 -12.4936 5.55625
    endloop
  endfacet
  facet normal 0 -1 0
    outer loop
      vertex -25.0132 -5.34987 5.55625
      vertex 25.0132 -5.34987 6.35
      vertex -25.0132 -5.34987 6.35
    endloop
  endfacet
  facet normal 0 -1 -0
    outer loop
      vertex 25.0132 -5.34987 6.35
      vertex -25.0132 -5.34987 5.55625
      vertex 25.0132 -5.34987 5.55625
    endloop
  endfacet
  facet normal 0 0 1
    outer loop
      vertex 25.0132 -5.34987 5.55625
      vertex 24.3894 -7.73112 5.55625
      vertex 24.7865 -6.3641 5.55625
    endloop
  endfacet
  facet normal 0 0 1
    outer loop
      vertex 25.0132 -5.34987 5.55625
      vertex -24.3894 -7.73112 5.55625
      vertex 24.3894 -7.73112 5.55625
    endloop
  endfacet
  facet normal -0 0 1
    outer loop
      vertex -25.0132 -5.34987 5.55625
      vertex -24.3894 -7.73112 5.55625
      vertex 25.0132 -5.34987 5.55625
    endloop
  endfacet
  facet normal 0 0 1
    outer loop
      vertex -24.3894 -7.73112 5.55625
      vertex -25.0132 -5.34987 5.55625
      vertex -24.7865 -6.3641 5.55625
    endloop
  endfacet
  facet normal 0 1 -0
    outer loop
      vertex 24.3894 -7.73112 5.55625
      vertex -24.3894 -7.73112 6.35
      vertex 24.3894 -7.73112 6.35
    endloop
  endfacet
  facet normal 0 1 0
    outer loop
      vertex -24.3894 -7.73112 6.35
      vertex 24.3894 -7.73112 5.55625
      vertex -24.3894 -7.73112 5.55625
    endloop
  endfacet
  facet normal 0 -1 0
    outer loop
      vertex -25.572 -0.587375 5.55625
      vertex 25.572 -0.587375 6.35
      vertex -25.572 -0.587375 6.35
    endloop
  endfacet
  facet normal 0 -1 -0
    outer loop
      vertex 25.572 -0.587375 6.35
      vertex -25.572 -0.587375 5.55625
      vertex 25.572 -0.587375 5.55625
    endloop
  endfacet
  facet normal 0 0 1
    outer loop
      vertex 25.572 -0.587375 5.55625
      vertex 25.4113 -2.96862 5.55625
      vertex 25.54 -1.60684 5.55625
    endloop
  endfacet
  facet normal 0 0 1
    outer loop
      vertex 25.572 -0.587375 5.55625
      vertex -25.4113 -2.96862 5.55625
      vertex 25.4113 -2.96862 5.55625
    endloop
  endfacet
  facet normal -0 0 1
    outer loop
      vertex -25.572 -0.587375 5.55625
      vertex -25.4113 -2.96862 5.55625
      vertex 25.572 -0.587375 5.55625
    endloop
  endfacet
  facet normal 0 0 1
    outer loop
      vertex -25.4113 -2.96862 5.55625
      vertex -25.572 -0.587375 5.55625
      vertex -25.54 -1.60684 5.55625
    endloop
  endfacet
  facet normal 0 1 -0
    outer loop
      vertex 25.4113 -2.96862 5.55625
      vertex -25.4113 -2.96862 6.35
      vertex 25.4113 -2.96862 6.35
    endloop
  endfacet
  facet normal 0 1 0
    outer loop
      vertex -25.4113 -2.96862 6.35
      vertex 25.4113 -2.96862 5.55625
      vertex -25.4113 -2.96862 5.55625
    endloop
  endfacet
  facet normal 0 -1 0
    outer loop
      vertex -25.2354 4.17512 5.55625
      vertex 25.2354 4.17512 6.35
      vertex -25.2354 4.17512 6.35
    endloop
  endfacet
  facet normal 0 -1 -0
    outer loop
      vertex 25.2354 4.17512 6.35
      vertex -25.2354 4.17512 5.55625
      vertex 25.2354 4.17512 5.55625
    endloop
  endfacet
  facet normal 0 0 1
    outer loop
      vertex 25.2354 4.17512 5.55625
      vertex 25.5223 1.79387 5.55625
      vertex 25.3887 3.20734 5.55625
    endloop
  endfacet
  facet normal -0 0 1
    outer loop
      vertex -25.2354 4.17512 5.55625
      vertex 25.5223 1.79387 5.55625
      vertex 25.2354 4.17512 5.55625
    endloop
  endfacet
  facet normal 0 0 1
    outer loop
      vertex -25.5223 1.79387 5.55625
      vertex -25.2354 4.17512 5.55625
      vertex -25.3887 3.20734 5.55625
    endloop
  endfacet
  facet normal 0 0 1
    outer loop
      vertex -25.2354 4.17512 5.55625
      vertex -25.5223 1.79387 5.55625
      vertex 25.5223 1.79387 5.55625
    endloop
  endfacet
  facet normal 0 1 -0
    outer loop
      vertex 25.5223 1.79387 5.55625
      vertex -25.5223 1.79387 6.35
      vertex 25.5223 1.79387 6.35
    endloop
  endfacet
  facet normal 0 1 0
    outer loop
      vertex -25.5223 1.79387 6.35
      vertex 25.5223 1.79387 5.55625
      vertex -25.5223 1.79387 5.55625
    endloop
  endfacet
  facet normal 0 0 1
    outer loop
      vertex 23.9673 8.93762 5.55625
      vertex 24.7307 6.55637 5.55625
      vertex 24.338 7.9079 5.55625
    endloop
  endfacet
  facet normal -0 0 1
    outer loop
      vertex -23.9673 8.93762 5.55625
      vertex 24.7307 6.55637 5.55625
      vertex 23.9673 8.93762 5.55625
    endloop
  endfacet
  facet normal 0 0 1
    outer loop
      vertex -24.7307 6.55637 5.55625
      vertex -23.9673 8.93762 5.55625
      vertex -24.338 7.9079 5.55625
    endloop
  endfacet
  facet normal 0 0 1
    outer loop
      vertex -23.9673 8.93762 5.55625
      vertex -24.7307 6.55637 5.55625
      vertex 24.7307 6.55637 5.55625
    endloop
  endfacet
  facet normal 0 1 -0
    outer loop
      vertex 24.7307 6.55637 5.55625
      vertex -24.7307 6.55637 6.35
      vertex 24.7307 6.55637 6.35
    endloop
  endfacet
  facet normal 0 1 0
    outer loop
      vertex -24.7307 6.55637 6.35
      vertex 24.7307 6.55637 5.55625
      vertex -24.7307 6.55637 5.55625
    endloop
  endfacet
  facet normal 0 -1 0
    outer loop
      vertex -23.9673 8.93762 5.55625
      vertex 23.9673 8.93762 6.35
      vertex -23.9673 8.93762 6.35
    endloop
  endfacet
  facet normal 0 -1 -0
    outer loop
      vertex 23.9673 8.93762 6.35
      vertex -23.9673 8.93762 5.55625
      vertex 23.9673 8.93762 5.55625
    endloop
  endfacet
  facet normal 0 -1 0
    outer loop
      vertex -21.6138 13.7001 5.55625
      vertex 21.6138 13.7001 6.35
      vertex -21.6138 13.7001 6.35
    endloop
  endfacet
  facet normal 0 -1 -0
    outer loop
      vertex 21.6138 13.7001 6.35
      vertex -21.6138 13.7001 5.55625
      vertex 21.6138 13.7001 5.55625
    endloop
  endfacet
  facet normal 0 0 1
    outer loop
      vertex 21.6138 13.7001 5.55625
      vertex 22.9395 11.3189 5.55625
      vertex 22.4251 12.3283 5.55625
    endloop
  endfacet
  facet normal -0 0 1
    outer loop
      vertex -21.6138 13.7001 5.55625
      vertex 22.9395 11.3189 5.55625
      vertex 21.6138 13.7001 5.55625
    endloop
  endfacet
  facet normal -0 0 1
    outer loop
      vertex -22.4251 12.3283 5.55625
      vertex 22.9395 11.3189 5.55625
      vertex -21.6138 13.7001 5.55625
    endloop
  endfacet
  facet normal 0 0 1
    outer loop
      vertex 22.9395 11.3189 5.55625
      vertex -22.4251 12.3283 5.55625
      vertex -22.9395 11.3189 5.55625
    endloop
  endfacet
  facet normal 0 1 -0
    outer loop
      vertex 22.9395 11.3189 5.55625
      vertex -22.9395 11.3189 6.35
      vertex 22.9395 11.3189 6.35
    endloop
  endfacet
  facet normal 0 1 0
    outer loop
      vertex -22.9395 11.3189 6.35
      vertex 22.9395 11.3189 5.55625
      vertex -22.9395 11.3189 5.55625
    endloop
  endfacet
  facet normal 0 -1 0
    outer loop
      vertex -17.7099 18.4626 5.55625
      vertex 17.7099 18.4626 6.35
      vertex -17.7099 18.4626 6.35
    endloop
  endfacet
  facet normal 0 -1 -0
    outer loop
      vertex 17.7099 18.4626 6.35
      vertex -17.7099 18.4626 5.55625
      vertex 17.7099 18.4626 5.55625
    endloop
  endfacet
  facet normal 0 0 1
    outer loop
      vertex 18.6547 17.5179 5.55625
      vertex 19.8967 16.0814 5.55625
      vertex 19.7178 16.312 5.55625
    endloop
  endfacet
  facet normal 0 0 1
    outer loop
      vertex 17.7099 18.4626 5.55625
      vertex 19.8967 16.0814 5.55625
      vertex 18.6547 17.5179 5.55625
    endloop
  endfacet
  facet normal -0 0 1
    outer loop
      vertex -17.7099 18.4626 5.55625
      vertex 19.8967 16.0814 5.55625
      vertex 17.7099 18.4626 5.55625
    endloop
  endfacet
  facet normal -0 0 1
    outer loop
      vertex -18.6547 17.5179 5.55625
      vertex 19.8967 16.0814 5.55625
      vertex -17.7099 18.4626 5.55625
    endloop
  endfacet
  facet normal 0 0 1
    outer loop
      vertex -19.8967 16.0814 5.55625
      vertex -18.6547 17.5179 5.55625
      vertex -19.7178 16.312 5.55625
    endloop
  endfacet
  facet normal 0 0 1
    outer loop
      vertex -18.6547 17.5179 5.55625
      vertex -19.8967 16.0814 5.55625
      vertex 19.8967 16.0814 5.55625
    endloop
  endfacet
  facet normal 0 1 -0
    outer loop
      vertex 19.8967 16.0814 5.55625
      vertex -19.8967 16.0814 6.35
      vertex 19.8967 16.0814 6.35
    endloop
  endfacet
  facet normal 0 1 0
    outer loop
      vertex -19.8967 16.0814 6.35
      vertex 19.8967 16.0814 5.55625
      vertex -19.8967 16.0814 5.55625
    endloop
  endfacet
  facet normal 0 0 1
    outer loop
      vertex 12.3283 22.4251 5.55625
      vertex 14.8346 20.8439 5.55625
      vertex 13.7121 21.6068 5.55625
    endloop
  endfacet
  facet normal 0 0 1
    outer loop
      vertex 10.7338 23.2251 5.55625
      vertex 12.3283 22.4251 5.55625
      vertex 10.8959 23.155 5.55625
    endloop
  endfacet
  facet normal 0 0 1
    outer loop
      vertex 12.3283 22.4251 5.55625
      vertex 10.7338 23.2251 5.55625
      vertex 14.8346 20.8439 5.55625
    endloop
  endfacet
  facet normal -0 0 1
    outer loop
      vertex -10.7338 23.2251 5.55625
      vertex 14.8346 20.8439 5.55625
      vertex 10.7338 23.2251 5.55625
    endloop
  endfacet
  facet normal 0 0 1
    outer loop
      vertex -12.3283 22.4251 5.55625
      vertex -10.7338 23.2251 5.55625
      vertex -10.8959 23.155 5.55625
    endloop
  endfacet
  facet normal 0 0 1
    outer loop
      vertex -10.7338 23.2251 5.55625
      vertex -12.3283 22.4251 5.55625
      vertex 14.8346 20.8439 5.55625
    endloop
  endfacet
  facet normal -0 0 1
    outer loop
      vertex -13.7121 21.6068 5.55625
      vertex 14.8346 20.8439 5.55625
      vertex -12.3283 22.4251 5.55625
    endloop
  endfacet
  facet normal 0 0 1
    outer loop
      vertex 14.8346 20.8439 5.55625
      vertex -13.7121 21.6068 5.55625
      vertex -14.8346 20.8439 5.55625
    endloop
  endfacet
  facet normal 0 1 -0
    outer loop
      vertex 14.8346 20.8439 5.55625
      vertex -14.8346 20.8439 6.35
      vertex 14.8346 20.8439 6.35
    endloop
  endfacet
  facet normal 0 1 0
    outer loop
      vertex -14.8346 20.8439 6.35
      vertex 14.8346 20.8439 5.55625
      vertex -14.8346 20.8439 5.55625
    endloop
  endfacet
  facet normal 0 -1 0
    outer loop
      vertex -10.7338 23.2251 5.55625
      vertex 10.7338 23.2251 6.35
      vertex -10.7338 23.2251 6.35
    endloop
  endfacet
  facet normal 0 -1 -0
    outer loop
      vertex 10.7338 23.2251 6.35
      vertex -10.7338 23.2251 5.55625
      vertex 10.7338 23.2251 5.55625
    endloop
  endfacet
  facet normal 0.999507 0.0314108 0
    outer loop
      vertex 25.5905 0 6.35
      vertex 25.54 1.60684 0
      vertex 25.54 1.60684 6.35
    endloop
  endfacet
  facet normal 0.999507 0.0314108 0
    outer loop
      vertex 25.54 1.60684 0
      vertex 25.5905 0 6.35
      vertex 25.5905 0 0
    endloop
  endfacet
  facet normal -0.999507 0.0314108 0
    outer loop
      vertex -25.5905 0 0
      vertex -25.54 1.60684 6.35
      vertex -25.54 1.60684 0
    endloop
  endfacet
  facet normal -0.999507 0.0314108 0
    outer loop
      vertex -25.54 1.60684 6.35
      vertex -25.5905 0 0
      vertex -25.5905 0 6.35
    endloop
  endfacet
  facet normal 0.0314108 0.999507 -0
    outer loop
      vertex 1.60684 25.54 0
      vertex 0 25.5905 6.35
      vertex 1.60684 25.54 6.35
    endloop
  endfacet
  facet normal 0.0314108 0.999507 0
    outer loop
      vertex 0 25.5905 6.35
      vertex 1.60684 25.54 0
      vertex 0 25.5905 0
    endloop
  endfacet
  facet normal 0.707107 0.707107 -0
    outer loop
      vertex 17.7099 18.4626 5.55625
      vertex 17.5179 18.6547 6.35
      vertex 17.7099 18.4626 6.35
    endloop
  endfacet
  facet normal 0.707107 0.707107 0
    outer loop
      vertex 17.5179 18.6547 6.35
      vertex 17.7099 18.4626 5.55625
      vertex 17.5179 18.6547 0
    endloop
  endfacet
  facet normal 0.707107 0.707107 -0
    outer loop
      vertex 18.6547 17.5179 0
      vertex 17.7099 18.4626 5.55625
      vertex 18.6547 17.5179 5.55625
    endloop
  endfacet
  facet normal 0.707107 0.707107 0
    outer loop
      vertex 17.7099 18.4626 5.55625
      vertex 18.6547 17.5179 0
      vertex 17.5179 18.6547 0
    endloop
  endfacet
  facet normal -0.661312 0.750111 0
    outer loop
      vertex -16.312 19.7178 0
      vertex -17.5179 18.6547 6.35
      vertex -16.312 19.7178 6.35
    endloop
  endfacet
  facet normal -0.661312 0.750111 0
    outer loop
      vertex -17.5179 18.6547 6.35
      vertex -16.312 19.7178 0
      vertex -17.5179 18.6547 0
    endloop
  endfacet
  facet normal -0.338738 0.940881 0
    outer loop
      vertex -7.9079 24.338 0
      vertex -9.42049 23.7934 6.35
      vertex -7.9079 24.338 6.35
    endloop
  endfacet
  facet normal -0.338738 0.940881 0
    outer loop
      vertex -9.42049 23.7934 6.35
      vertex -7.9079 24.338 0
      vertex -9.42049 23.7934 0
    endloop
  endfacet
  facet normal -0.940881 -0.338738 0
    outer loop
      vertex -23.7934 -9.42049 0
      vertex -24.338 -7.9079 6.35
      vertex -24.338 -7.9079 0
    endloop
  endfacet
  facet normal -0.940881 -0.338738 0
    outer loop
      vertex -24.338 -7.9079 6.35
      vertex -23.7934 -9.42049 0
      vertex -23.7934 -9.42049 6.35
    endloop
  endfacet
  facet normal 0.917754 0.397149 0
    outer loop
      vertex 23.7934 9.42049 6.35
      vertex 23.155 10.8959 0
      vertex 23.155 10.8959 6.35
    endloop
  endfacet
  facet normal 0.917754 0.397149 0
    outer loop
      vertex 23.155 10.8959 0
      vertex 23.7934 9.42049 6.35
      vertex 23.7934 9.42049 0
    endloop
  endfacet
  facet normal -0.82708 0.562084 0
    outer loop
      vertex -21.6068 13.7121 0
      vertex -20.7031 15.0417 6.35
      vertex -20.7031 15.0417 0
    endloop
  endfacet
  facet normal -0.82708 0.562084 0
    outer loop
      vertex -20.7031 15.0417 6.35
      vertex -21.6068 13.7121 0
      vertex -21.6068 13.7121 6.35
    endloop
  endfacet
  facet normal -0.750111 0.661312 0
    outer loop
      vertex -19.7178 16.312 0
      vertex -18.6547 17.5179 5.55625
      vertex -18.6547 17.5179 0
    endloop
  endfacet
  facet normal -0.750111 0.661312 0
    outer loop
      vertex -18.6547 17.5179 5.55625
      vertex -19.7178 16.312 0
      vertex -19.7178 16.312 5.55625
    endloop
  endfacet
  facet normal -0.156433 0.987689 0
    outer loop
      vertex -3.20734 25.3887 0
      vertex -4.79518 25.1372 6.35
      vertex -3.20734 25.3887 6.35
    endloop
  endfacet
  facet normal -0.156433 0.987689 0
    outer loop
      vertex -4.79518 25.1372 6.35
      vertex -3.20734 25.3887 0
      vertex -4.79518 25.1372 0
    endloop
  endfacet
  facet normal 0.891006 -0.453991 0
    outer loop
      vertex 22.4251 -12.3283 5.55625
      vertex 23.155 -10.8959 0
      vertex 23.155 -10.8959 5.55625
    endloop
  endfacet
  facet normal 0.891006 -0.453991 0
    outer loop
      vertex 23.155 -10.8959 0
      vertex 22.4251 -12.3283 5.55625
      vertex 22.4251 -12.3283 0
    endloop
  endfacet
  facet normal 0.218144 -0.975916 0
    outer loop
      vertex 4.79518 -25.1372 0
      vertex 6.3641 -24.7865 5.55625
      vertex 4.79518 -25.1372 5.55625
    endloop
  endfacet
  facet normal 0.218144 -0.975916 0
    outer loop
      vertex 6.3641 -24.7865 5.55625
      vertex 4.79518 -25.1372 0
      vertex 6.3641 -24.7865 0
    endloop
  endfacet
  facet normal 0.707107 -0.707107 0
    outer loop
      vertex 17.5179 -18.6547 6.35
      vertex 18.6547 -17.5179 0
      vertex 18.6547 -17.5179 6.35
    endloop
  endfacet
  facet normal 0.707107 -0.707107 0
    outer loop
      vertex 18.6547 -17.5179 0
      vertex 17.5179 -18.6547 6.35
      vertex 17.5179 -18.6547 0
    endloop
  endfacet
  facet normal -0.338738 -0.940881 0
    outer loop
      vertex -9.42049 -23.7934 0
      vertex -7.9079 -24.338 6.35
      vertex -9.42049 -23.7934 6.35
    endloop
  endfacet
  facet normal -0.338738 -0.940881 -0
    outer loop
      vertex -7.9079 -24.338 6.35
      vertex -9.42049 -23.7934 0
      vertex -7.9079 -24.338 0
    endloop
  endfacet
  facet normal -0.750111 -0.661312 0
    outer loop
      vertex -19.7178 -16.312 0
      vertex -18.8855 -17.2561 5.55625
      vertex -19.7178 -16.312 5.55625
    endloop
  endfacet
  facet normal -0.750111 -0.661312 -9.45651e-08
    outer loop
      vertex -18.6547 -17.5179 0
      vertex -18.8855 -17.2561 5.55625
      vertex -19.7178 -16.312 0
    endloop
  endfacet
  facet normal -0.75011 -0.661313 -0
    outer loop
      vertex -18.6547 -17.5179 6.35
      vertex -18.8855 -17.2561 5.55625
      vertex -18.6547 -17.5179 0
    endloop
  endfacet
  facet normal -0.75011 -0.661313 0
    outer loop
      vertex -18.8855 -17.2561 5.55625
      vertex -18.6547 -17.5179 6.35
      vertex -18.8855 -17.2561 6.35
    endloop
  endfacet
  facet normal 0.987689 0.156432 -0
    outer loop
      vertex 25.2354 4.17512 5.55625
      vertex 25.1372 4.79518 6.35
      vertex 25.2354 4.17512 6.35
    endloop
  endfacet
  facet normal 0.987689 0.156432 0
    outer loop
      vertex 25.1372 4.79518 6.35
      vertex 25.2354 4.17512 5.55625
      vertex 25.1372 4.79518 0
    endloop
  endfacet
  facet normal 0.987688 0.156435 -0
    outer loop
      vertex 25.3887 3.20734 0
      vertex 25.2354 4.17512 5.55625
      vertex 25.3887 3.20734 5.55625
    endloop
  endfacet
  facet normal 0.987689 0.156433 2.05264e-07
    outer loop
      vertex 25.2354 4.17512 5.55625
      vertex 25.3887 3.20734 0
      vertex 25.1372 4.79518 0
    endloop
  endfacet
  facet normal 0.995562 0.0941043 0
    outer loop
      vertex 25.5223 1.79387 6.35
      vertex 25.54 1.60684 6.35
      vertex 25.5223 1.79387 5.55625
    endloop
  endfacet
  facet normal 0.995562 0.0941096 0
    outer loop
      vertex 25.5223 1.79387 5.55625
      vertex 25.3887 3.20734 0
      vertex 25.3887 3.20734 5.55625
    endloop
  endfacet
  facet normal 0.995562 0.094109 -1.59167e-07
    outer loop
      vertex 25.5223 1.79387 5.55625
      vertex 25.54 1.60684 0
      vertex 25.3887 3.20734 0
    endloop
  endfacet
  facet normal 0.995562 0.0941043 -0
    outer loop
      vertex 25.54 1.60684 0
      vertex 25.5223 1.79387 5.55625
      vertex 25.54 1.60684 6.35
    endloop
  endfacet
  facet normal 0.960295 0.278987 0
    outer loop
      vertex 24.7307 6.55637 6.35
      vertex 24.7865 6.3641 6.35
      vertex 24.7307 6.55637 5.55625
    endloop
  endfacet
  facet normal 0.960294 0.27899 0
    outer loop
      vertex 24.7307 6.55637 5.55625
      vertex 24.338 7.9079 0
      vertex 24.338 7.9079 5.55625
    endloop
  endfacet
  facet normal 0.960294 0.27899 -8.98245e-08
    outer loop
      vertex 24.7307 6.55637 5.55625
      vertex 24.7865 6.3641 0
      vertex 24.338 7.9079 0
    endloop
  endfacet
  facet normal 0.960295 0.278987 -0
    outer loop
      vertex 24.7865 6.3641 0
      vertex 24.7307 6.55637 5.55625
      vertex 24.7865 6.3641 6.35
    endloop
  endfacet
  facet normal 0.891007 0.453989 0
    outer loop
      vertex 22.9395 11.3189 6.35
      vertex 23.155 10.8959 6.35
      vertex 22.9395 11.3189 5.55625
    endloop
  endfacet
  facet normal 0.891006 0.453991 0
    outer loop
      vertex 22.9395 11.3189 5.55625
      vertex 22.4251 12.3283 0
      vertex 22.4251 12.3283 5.55625
    endloop
  endfacet
  facet normal 0.891007 0.453989 -0
    outer loop
      vertex 23.155 10.8959 0
      vertex 22.9395 11.3189 5.55625
      vertex 23.155 10.8959 6.35
    endloop
  endfacet
  facet normal 0.891006 0.453991 -1.20833e-07
    outer loop
      vertex 22.9395 11.3189 5.55625
      vertex 23.155 10.8959 0
      vertex 22.4251 12.3283 0
    endloop
  endfacet
  facet normal 0.27899 0.960294 -0
    outer loop
      vertex 7.9079 24.338 0
      vertex 6.3641 24.7865 6.35
      vertex 7.9079 24.338 6.35
    endloop
  endfacet
  facet normal 0.27899 0.960294 0
    outer loop
      vertex 6.3641 24.7865 6.35
      vertex 7.9079 24.338 0
      vertex 6.3641 24.7865 0
    endloop
  endfacet
  facet normal 0.338738 0.940881 -0
    outer loop
      vertex 9.42049 23.7934 0
      vertex 7.9079 24.338 6.35
      vertex 9.42049 23.7934 6.35
    endloop
  endfacet
  facet normal 0.338738 0.940881 0
    outer loop
      vertex 7.9079 24.338 6.35
      vertex 9.42049 23.7934 0
      vertex 7.9079 24.338 0
    endloop
  endfacet
  facet normal 0.156433 0.987689 -0
    outer loop
      vertex 4.79518 25.1372 0
      vertex 3.20734 25.3887 6.35
      vertex 4.79518 25.1372 6.35
    endloop
  endfacet
  facet normal 0.156433 0.987689 0
    outer loop
      vertex 3.20734 25.3887 6.35
      vertex 4.79518 25.1372 0
      vertex 3.20734 25.3887 0
    endloop
  endfacet
  facet normal 0.562088 0.827077 0
    outer loop
      vertex 15.0417 20.7031 6.35
      vertex 14.8346 20.8439 5.55625
      vertex 14.8346 20.8439 6.35
    endloop
  endfacet
  facet normal 0.562088 0.827077 -0
    outer loop
      vertex 15.0417 20.7031 0
      vertex 14.8346 20.8439 5.55625
      vertex 15.0417 20.7031 6.35
    endloop
  endfacet
  facet normal 0.562084 0.82708 -2.53096e-07
    outer loop
      vertex 13.7121 21.6068 0
      vertex 14.8346 20.8439 5.55625
      vertex 15.0417 20.7031 0
    endloop
  endfacet
  facet normal 0.562083 0.827081 0
    outer loop
      vertex 14.8346 20.8439 5.55625
      vertex 13.7121 21.6068 0
      vertex 13.7121 21.6068 5.55625
    endloop
  endfacet
  facet normal 0.509041 0.860742 -0
    outer loop
      vertex 13.7121 21.6068 0
      vertex 12.3283 22.4251 5.55625
      vertex 13.7121 21.6068 5.55625
    endloop
  endfacet
  facet normal 0.509041 0.860742 0
    outer loop
      vertex 12.3283 22.4251 5.55625
      vertex 13.7121 21.6068 0
      vertex 12.3283 22.4251 0
    endloop
  endfacet
  facet normal -0.960294 0.27899 0
    outer loop
      vertex -24.338 7.9079 0
      vertex -24.7307 6.55637 5.55625
      vertex -24.338 7.9079 5.55625
    endloop
  endfacet
  facet normal -0.960294 0.27899 -8.98245e-08
    outer loop
      vertex -24.7865 6.3641 0
      vertex -24.7307 6.55637 5.55625
      vertex -24.338 7.9079 0
    endloop
  endfacet
  facet normal -0.960295 0.278987 0
    outer loop
      vertex -24.7865 6.3641 6.35
      vertex -24.7307 6.55637 5.55625
      vertex -24.7865 6.3641 0
    endloop
  endfacet
  facet normal -0.960295 0.278987 0
    outer loop
      vertex -24.7307 6.55637 5.55625
      vertex -24.7865 6.3641 6.35
      vertex -24.7307 6.55637 6.35
    endloop
  endfacet
  facet normal -0.707107 0.707107 0
    outer loop
      vertex -17.5179 18.6547 0
      vertex -17.7099 18.4626 5.55625
      vertex -17.5179 18.6547 6.35
    endloop
  endfacet
  facet normal -0.707107 0.707107 0
    outer loop
      vertex -18.6547 17.5179 0
      vertex -17.7099 18.4626 5.55625
      vertex -17.5179 18.6547 0
    endloop
  endfacet
  facet normal -0.707107 0.707107 0
    outer loop
      vertex -17.7099 18.4626 5.55625
      vertex -18.6547 17.5179 0
      vertex -18.6547 17.5179 5.55625
    endloop
  endfacet
  facet normal -0.707107 0.707107 0
    outer loop
      vertex -17.5179 18.6547 6.35
      vertex -17.7099 18.4626 5.55625
      vertex -17.7099 18.4626 6.35
    endloop
  endfacet
  facet normal -0.860766 0.509 0
    outer loop
      vertex -21.6068 13.7121 0
      vertex -21.6138 13.7001 5.55625
      vertex -21.6068 13.7121 6.35
    endloop
  endfacet
  facet normal -0.860742 0.509041 1.19034e-07
    outer loop
      vertex -22.4251 12.3283 0
      vertex -21.6138 13.7001 5.55625
      vertex -21.6068 13.7121 0
    endloop
  endfacet
  facet normal -0.860742 0.509041 0
    outer loop
      vertex -21.6138 13.7001 5.55625
      vertex -22.4251 12.3283 0
      vertex -22.4251 12.3283 5.55625
    endloop
  endfacet
  facet normal -0.860766 0.509 0
    outer loop
      vertex -21.6068 13.7121 6.35
      vertex -21.6138 13.7001 5.55625
      vertex -21.6138 13.7001 6.35
    endloop
  endfacet
  facet normal -0.940881 0.338736 0
    outer loop
      vertex -23.7934 9.42049 0
      vertex -23.9673 8.93762 5.55625
      vertex -23.7934 9.42049 6.35
    endloop
  endfacet
  facet normal -0.940881 0.338738 2.03333e-07
    outer loop
      vertex -24.338 7.9079 0
      vertex -23.9673 8.93762 5.55625
      vertex -23.7934 9.42049 0
    endloop
  endfacet
  facet normal -0.94088 0.338739 0
    outer loop
      vertex -23.9673 8.93762 5.55625
      vertex -24.338 7.9079 0
      vertex -24.338 7.9079 5.55625
    endloop
  endfacet
  facet normal -0.940881 0.338736 0
    outer loop
      vertex -23.7934 9.42049 6.35
      vertex -23.9673 8.93762 5.55625
      vertex -23.9673 8.93762 6.35
    endloop
  endfacet
  facet normal -0.987689 0.156432 0
    outer loop
      vertex -25.1372 4.79518 0
      vertex -25.2354 4.17512 5.55625
      vertex -25.1372 4.79518 6.35
    endloop
  endfacet
  facet normal -0.987689 0.156433 2.05264e-07
    outer loop
      vertex -25.3887 3.20734 0
      vertex -25.2354 4.17512 5.55625
      vertex -25.1372 4.79518 0
    endloop
  endfacet
  facet normal -0.987688 0.156435 0
    outer loop
      vertex -25.2354 4.17512 5.55625
      vertex -25.3887 3.20734 0
      vertex -25.3887 3.20734 5.55625
    endloop
  endfacet
  facet normal -0.987689 0.156432 0
    outer loop
      vertex -25.1372 4.79518 6.35
      vertex -25.2354 4.17512 5.55625
      vertex -25.2354 4.17512 6.35
    endloop
  endfacet
  facet normal -0.453991 0.891006 0
    outer loop
      vertex -10.8959 23.155 0
      vertex -12.3283 22.4251 5.55625
      vertex -10.8959 23.155 5.55625
    endloop
  endfacet
  facet normal -0.453991 0.891006 0
    outer loop
      vertex -12.3283 22.4251 5.55625
      vertex -10.8959 23.155 0
      vertex -12.3283 22.4251 0
    endloop
  endfacet
  facet normal -0.509041 0.860742 0
    outer loop
      vertex -12.3283 22.4251 0
      vertex -13.7121 21.6068 5.55625
      vertex -12.3283 22.4251 5.55625
    endloop
  endfacet
  facet normal -0.509041 0.860742 0
    outer loop
      vertex -13.7121 21.6068 5.55625
      vertex -12.3283 22.4251 0
      vertex -13.7121 21.6068 0
    endloop
  endfacet
  facet normal -0.562083 0.827081 0
    outer loop
      vertex -13.7121 21.6068 5.55625
      vertex -13.7121 21.6068 0
      vertex -14.8346 20.8439 5.55625
    endloop
  endfacet
  facet normal -0.562088 0.827077 0
    outer loop
      vertex -14.8346 20.8439 5.55625
      vertex -15.0417 20.7031 6.35
      vertex -14.8346 20.8439 6.35
    endloop
  endfacet
  facet normal -0.562084 0.82708 -2.53096e-07
    outer loop
      vertex -15.0417 20.7031 0
      vertex -14.8346 20.8439 5.55625
      vertex -13.7121 21.6068 0
    endloop
  endfacet
  facet normal -0.562088 0.827077 0
    outer loop
      vertex -14.8346 20.8439 5.55625
      vertex -15.0417 20.7031 0
      vertex -15.0417 20.7031 6.35
    endloop
  endfacet
  facet normal -0.27899 0.960294 0
    outer loop
      vertex -6.3641 24.7865 0
      vertex -7.9079 24.338 6.35
      vertex -6.3641 24.7865 6.35
    endloop
  endfacet
  facet normal -0.27899 0.960294 0
    outer loop
      vertex -7.9079 24.338 6.35
      vertex -6.3641 24.7865 0
      vertex -7.9079 24.338 0
    endloop
  endfacet
  facet normal -0.094109 0.995562 0
    outer loop
      vertex -1.60684 25.54 0
      vertex -3.20734 25.3887 6.35
      vertex -1.60684 25.54 6.35
    endloop
  endfacet
  facet normal -0.094109 0.995562 0
    outer loop
      vertex -3.20734 25.3887 6.35
      vertex -1.60684 25.54 0
      vertex -3.20734 25.3887 0
    endloop
  endfacet
  facet normal 0.509041 -0.860742 0
    outer loop
      vertex 12.3283 -22.4251 6.35
      vertex 13.0157 -22.0186 5.55625
      vertex 13.0157 -22.0186 6.35
    endloop
  endfacet
  facet normal 0.509041 -0.860742 0
    outer loop
      vertex 12.3283 -22.4251 0
      vertex 13.0157 -22.0186 5.55625
      vertex 12.3283 -22.4251 6.35
    endloop
  endfacet
  facet normal 0.509041 -0.860742 6.03244e-08
    outer loop
      vertex 13.7121 -21.6068 0
      vertex 13.0157 -22.0186 5.55625
      vertex 12.3283 -22.4251 0
    endloop
  endfacet
  facet normal 0.509041 -0.860742 0
    outer loop
      vertex 13.0157 -22.0186 5.55625
      vertex 13.7121 -21.6068 0
      vertex 13.7121 -21.6068 5.55625
    endloop
  endfacet
  facet normal 0.987689 -0.156433 0
    outer loop
      vertex 25.1372 -4.79518 6.35
      vertex 25.3887 -3.20734 0
      vertex 25.3887 -3.20734 6.35
    endloop
  endfacet
  facet normal 0.987689 -0.156433 0
    outer loop
      vertex 25.3887 -3.20734 0
      vertex 25.1372 -4.79518 6.35
      vertex 25.1372 -4.79518 0
    endloop
  endfacet
  facet normal 0.995562 -0.0941109 0
    outer loop
      vertex 25.4113 -2.96862 6.35
      vertex 25.3887 -3.20734 6.35
      vertex 25.4113 -2.96862 5.55625
    endloop
  endfacet
  facet normal 0.995562 -0.0941087 0
    outer loop
      vertex 25.4113 -2.96862 5.55625
      vertex 25.54 -1.60684 0
      vertex 25.54 -1.60684 5.55625
    endloop
  endfacet
  facet normal 0.995562 -0.0941109 0
    outer loop
      vertex 25.3887 -3.20734 0
      vertex 25.4113 -2.96862 5.55625
      vertex 25.3887 -3.20734 6.35
    endloop
  endfacet
  facet normal 0.995562 -0.094109 -8.10003e-08
    outer loop
      vertex 25.4113 -2.96862 5.55625
      vertex 25.3887 -3.20734 0
      vertex 25.54 -1.60684 0
    endloop
  endfacet
  facet normal -0.218144 -0.975916 0
    outer loop
      vertex -6.3641 -24.7865 0
      vertex -4.79518 -25.1372 5.55625
      vertex -6.3641 -24.7865 5.55625
    endloop
  endfacet
  facet normal -0.218144 -0.975916 -0
    outer loop
      vertex -4.79518 -25.1372 5.55625
      vertex -6.3641 -24.7865 0
      vertex -4.79518 -25.1372 0
    endloop
  endfacet
  facet normal -0.707107 -0.707107 0
    outer loop
      vertex -17.5179 -18.6547 0
      vertex -18.6547 -17.5179 6.35
      vertex -18.6547 -17.5179 0
    endloop
  endfacet
  facet normal -0.707107 -0.707107 0
    outer loop
      vertex -18.6547 -17.5179 6.35
      vertex -17.5179 -18.6547 0
      vertex -17.5179 -18.6547 6.35
    endloop
  endfacet
  facet normal -0.661312 -0.750111 0
    outer loop
      vertex -17.5179 -18.6547 6.35
      vertex -16.4032 -19.6374 5.55625
      vertex -16.4032 -19.6374 6.35
    endloop
  endfacet
  facet normal -0.661312 -0.750111 0
    outer loop
      vertex -17.5179 -18.6547 0
      vertex -16.4032 -19.6374 5.55625
      vertex -17.5179 -18.6547 6.35
    endloop
  endfacet
  facet normal -0.661312 -0.750111 5.26089e-08
    outer loop
      vertex -16.312 -19.7178 0
      vertex -16.4032 -19.6374 5.55625
      vertex -17.5179 -18.6547 0
    endloop
  endfacet
  facet normal -0.661314 -0.750109 0
    outer loop
      vertex -16.4032 -19.6374 5.55625
      vertex -16.312 -19.7178 0
      vertex -16.312 -19.7178 5.55625
    endloop
  endfacet
  facet normal -0.397149 -0.917754 0
    outer loop
      vertex -10.8959 -23.155 0
      vertex -9.42049 -23.7934 6.35
      vertex -10.8959 -23.155 6.35
    endloop
  endfacet
  facet normal -0.397149 -0.917754 -0
    outer loop
      vertex -9.42049 -23.7934 6.35
      vertex -10.8959 -23.155 0
      vertex -9.42049 -23.7934 0
    endloop
  endfacet
  facet normal -0.156433 -0.987689 0
    outer loop
      vertex -4.79518 -25.1372 0
      vertex -3.20734 -25.3887 5.55625
      vertex -4.79518 -25.1372 5.55625
    endloop
  endfacet
  facet normal -0.156433 -0.987689 -0
    outer loop
      vertex -3.20734 -25.3887 5.55625
      vertex -4.79518 -25.1372 0
      vertex -3.20734 -25.3887 0
    endloop
  endfacet
  facet normal -0.860746 -0.509035 0
    outer loop
      vertex -22.4251 -12.3283 0
      vertex -22.3274 -12.4936 5.55625
      vertex -22.4251 -12.3283 5.55625
    endloop
  endfacet
  facet normal -0.860742 -0.509041 -2.52654e-07
    outer loop
      vertex -21.6068 -13.7121 0
      vertex -22.3274 -12.4936 5.55625
      vertex -22.4251 -12.3283 0
    endloop
  endfacet
  facet normal -0.860742 -0.509042 -0
    outer loop
      vertex -21.6068 -13.7121 6.35
      vertex -22.3274 -12.4936 5.55625
      vertex -21.6068 -13.7121 0
    endloop
  endfacet
  facet normal -0.860742 -0.509042 0
    outer loop
      vertex -22.3274 -12.4936 5.55625
      vertex -21.6068 -13.7121 6.35
      vertex -22.3274 -12.4936 6.35
    endloop
  endfacet
  facet normal -0.827081 -0.562083 0
    outer loop
      vertex -21.6068 -13.7121 0
      vertex -20.8165 -14.8749 5.55625
      vertex -21.6068 -13.7121 6.35
    endloop
  endfacet
  facet normal -0.82708 -0.562084 -9.48339e-08
    outer loop
      vertex -20.7031 -15.0417 0
      vertex -20.8165 -14.8749 5.55625
      vertex -21.6068 -13.7121 0
    endloop
  endfacet
  facet normal -0.827079 -0.562086 0
    outer loop
      vertex -20.8165 -14.8749 5.55625
      vertex -20.7031 -15.0417 0
      vertex -20.7031 -15.0417 5.55625
    endloop
  endfacet
  facet normal -0.827081 -0.562083 0
    outer loop
      vertex -21.6068 -13.7121 6.35
      vertex -20.8165 -14.8749 5.55625
      vertex -20.8165 -14.8749 6.35
    endloop
  endfacet
  facet normal 0 0 -1
    outer loop
      vertex 25.54 -1.60684 0
      vertex 25.54 1.60684 0
      vertex 25.5905 0 0
    endloop
  endfacet
  facet normal 0 0 -1
    outer loop
      vertex 25.3887 -3.20734 0
      vertex 25.54 1.60684 0
      vertex 25.54 -1.60684 0
    endloop
  endfacet
  facet normal 0 0 -1
    outer loop
      vertex 25.3887 -3.20734 0
      vertex 25.3887 3.20734 0
      vertex 25.54 1.60684 0
    endloop
  endfacet
  facet normal 0 0 -1
    outer loop
      vertex 25.1372 -4.79518 0
      vertex 25.3887 3.20734 0
      vertex 25.3887 -3.20734 0
    endloop
  endfacet
  facet normal 0 0 -1
    outer loop
      vertex 25.1372 -4.79518 0
      vertex 25.1372 4.79518 0
      vertex 25.3887 3.20734 0
    endloop
  endfacet
  facet normal 0 0 -1
    outer loop
      vertex 24.7865 -6.3641 0
      vertex 25.1372 4.79518 0
      vertex 25.1372 -4.79518 0
    endloop
  endfacet
  facet normal 0 0 -1
    outer loop
      vertex 24.7865 -6.3641 0
      vertex 24.7865 6.3641 0
      vertex 25.1372 4.79518 0
    endloop
  endfacet
  facet normal 0 0 -1
    outer loop
      vertex 24.338 -7.9079 0
      vertex 24.7865 6.3641 0
      vertex 24.7865 -6.3641 0
    endloop
  endfacet
  facet normal 0 0 -1
    outer loop
      vertex 24.338 -7.9079 0
      vertex 24.338 7.9079 0
      vertex 24.7865 6.3641 0
    endloop
  endfacet
  facet normal 0 0 -1
    outer loop
      vertex 23.7934 -9.42049 0
      vertex 24.338 7.9079 0
      vertex 24.338 -7.9079 0
    endloop
  endfacet
  facet normal 0 0 -1
    outer loop
      vertex 23.7934 -9.42049 0
      vertex 23.7934 9.42049 0
      vertex 24.338 7.9079 0
    endloop
  endfacet
  facet normal 0 0 -1
    outer loop
      vertex 23.155 -10.8959 0
      vertex 23.7934 9.42049 0
      vertex 23.7934 -9.42049 0
    endloop
  endfacet
  facet normal 0 0 -1
    outer loop
      vertex 23.155 -10.8959 0
      vertex 23.155 10.8959 0
      vertex 23.7934 9.42049 0
    endloop
  endfacet
  facet normal 0 0 -1
    outer loop
      vertex 22.4251 -12.3283 0
      vertex 23.155 10.8959 0
      vertex 23.155 -10.8959 0
    endloop
  endfacet
  facet normal 0 0 -1
    outer loop
      vertex 22.4251 -12.3283 0
      vertex 22.4251 12.3283 0
      vertex 23.155 10.8959 0
    endloop
  endfacet
  facet normal 0 0 -1
    outer loop
      vertex 21.6068 -13.7121 0
      vertex 22.4251 12.3283 0
      vertex 22.4251 -12.3283 0
    endloop
  endfacet
  facet normal 0 0 -1
    outer loop
      vertex 21.6068 -13.7121 0
      vertex 21.6068 13.7121 0
      vertex 22.4251 12.3283 0
    endloop
  endfacet
  facet normal 0 0 -1
    outer loop
      vertex 20.7031 -15.0417 0
      vertex 21.6068 13.7121 0
      vertex 21.6068 -13.7121 0
    endloop
  endfacet
  facet normal 0 0 -1
    outer loop
      vertex 20.7031 -15.0417 0
      vertex 20.7031 15.0417 0
      vertex 21.6068 13.7121 0
    endloop
  endfacet
  facet normal 0 0 -1
    outer loop
      vertex 19.7178 -16.312 0
      vertex 20.7031 15.0417 0
      vertex 20.7031 -15.0417 0
    endloop
  endfacet
  facet normal 0 0 -1
    outer loop
      vertex 19.7178 -16.312 0
      vertex 19.7178 16.312 0
      vertex 20.7031 15.0417 0
    endloop
  endfacet
  facet normal 0 0 -1
    outer loop
      vertex 18.6547 -17.5179 0
      vertex 19.7178 16.312 0
      vertex 19.7178 -16.312 0
    endloop
  endfacet
  facet normal 0 0 -1
    outer loop
      vertex 18.6547 -17.5179 0
      vertex 18.6547 17.5179 0
      vertex 19.7178 16.312 0
    endloop
  endfacet
  facet normal 0 0 -1
    outer loop
      vertex 17.5179 -18.6547 0
      vertex 18.6547 17.5179 0
      vertex 18.6547 -17.5179 0
    endloop
  endfacet
  facet normal 0 0 -1
    outer loop
      vertex 17.5179 -18.6547 0
      vertex 17.5179 18.6547 0
      vertex 18.6547 17.5179 0
    endloop
  endfacet
  facet normal 0 0 -1
    outer loop
      vertex 16.312 -19.7178 0
      vertex 17.5179 18.6547 0
      vertex 17.5179 -18.6547 0
    endloop
  endfacet
  facet normal 0 0 -1
    outer loop
      vertex 16.312 -19.7178 0
      vertex 16.312 19.7178 0
      vertex 17.5179 18.6547 0
    endloop
  endfacet
  facet normal 0 0 -1
    outer loop
      vertex 15.0417 -20.7031 0
      vertex 16.312 19.7178 0
      vertex 16.312 -19.7178 0
    endloop
  endfacet
  facet normal 0 0 -1
    outer loop
      vertex 15.0417 -20.7031 0
      vertex 15.0417 20.7031 0
      vertex 16.312 19.7178 0
    endloop
  endfacet
  facet normal 0 0 -1
    outer loop
      vertex 13.7121 -21.6068 0
      vertex 15.0417 20.7031 0
      vertex 15.0417 -20.7031 0
    endloop
  endfacet
  facet normal 0 0 -1
    outer loop
      vertex 13.7121 -21.6068 0
      vertex 13.7121 21.6068 0
      vertex 15.0417 20.7031 0
    endloop
  endfacet
  facet normal 0 0 -1
    outer loop
      vertex 12.3283 -22.4251 0
      vertex 13.7121 21.6068 0
      vertex 13.7121 -21.6068 0
    endloop
  endfacet
  facet normal 0 0 -1
    outer loop
      vertex 12.3283 -22.4251 0
      vertex 12.3283 22.4251 0
      vertex 13.7121 21.6068 0
    endloop
  endfacet
  facet normal 0 0 -1
    outer loop
      vertex 10.8959 -23.155 0
      vertex 12.3283 22.4251 0
      vertex 12.3283 -22.4251 0
    endloop
  endfacet
  facet normal 0 0 -1
    outer loop
      vertex 10.8959 -23.155 0
      vertex 10.8959 23.155 0
      vertex 12.3283 22.4251 0
    endloop
  endfacet
  facet normal 0 0 -1
    outer loop
      vertex 9.42049 -23.7934 0
      vertex 10.8959 23.155 0
      vertex 10.8959 -23.155 0
    endloop
  endfacet
  facet normal 0 0 -1
    outer loop
      vertex 9.42049 -23.7934 0
      vertex 9.42049 23.7934 0
      vertex 10.8959 23.155 0
    endloop
  endfacet
  facet normal 0 0 -1
    outer loop
      vertex 7.9079 -24.338 0
      vertex 9.42049 23.7934 0
      vertex 9.42049 -23.7934 0
    endloop
  endfacet
  facet normal 0 0 -1
    outer loop
      vertex 7.9079 -24.338 0
      vertex 7.9079 24.338 0
      vertex 9.42049 23.7934 0
    endloop
  endfacet
  facet normal 0 0 -1
    outer loop
      vertex 6.3641 -24.7865 0
      vertex 7.9079 24.338 0
      vertex 7.9079 -24.338 0
    endloop
  endfacet
  facet normal 0 0 -1
    outer loop
      vertex 6.3641 -24.7865 0
      vertex 6.3641 24.7865 0
      vertex 7.9079 24.338 0
    endloop
  endfacet
  facet normal 0 0 -1
    outer loop
      vertex 4.79518 -25.1372 0
      vertex 6.3641 24.7865 0
      vertex 6.3641 -24.7865 0
    endloop
  endfacet
  facet normal 0 0 -1
    outer loop
      vertex 4.79518 -25.1372 0
      vertex 4.79518 25.1372 0
      vertex 6.3641 24.7865 0
    endloop
  endfacet
  facet normal 0 0 -1
    outer loop
      vertex 3.20734 -25.3887 0
      vertex 4.79518 25.1372 0
      vertex 4.79518 -25.1372 0
    endloop
  endfacet
  facet normal 0 0 -1
    outer loop
      vertex 3.20734 -25.3887 0
      vertex 3.20734 25.3887 0
      vertex 4.79518 25.1372 0
    endloop
  endfacet
  facet normal 0 0 -1
    outer loop
      vertex 1.60684 -25.54 0
      vertex 3.20734 25.3887 0
      vertex 3.20734 -25.3887 0
    endloop
  endfacet
  facet normal 0 0 -1
    outer loop
      vertex 1.60684 -25.54 0
      vertex 1.60684 25.54 0
      vertex 3.20734 25.3887 0
    endloop
  endfacet
  facet normal 0 0 -1
    outer loop
      vertex 0 -25.5905 0
      vertex 1.60684 25.54 0
      vertex 1.60684 -25.54 0
    endloop
  endfacet
  facet normal 0 0 -1
    outer loop
      vertex 0 -25.5905 0
      vertex 0 25.5905 0
      vertex 1.60684 25.54 0
    endloop
  endfacet
  facet normal 0 0 -1
    outer loop
      vertex -1.60684 -25.54 0
      vertex 0 25.5905 0
      vertex 0 -25.5905 0
    endloop
  endfacet
  facet normal 0 0 -1
    outer loop
      vertex -1.60684 -25.54 0
      vertex -1.60684 25.54 0
      vertex 0 25.5905 0
    endloop
  endfacet
  facet normal 0 0 -1
    outer loop
      vertex -3.20734 -25.3887 0
      vertex -1.60684 25.54 0
      vertex -1.60684 -25.54 0
    endloop
  endfacet
  facet normal 0 0 -1
    outer loop
      vertex -3.20734 -25.3887 0
      vertex -3.20734 25.3887 0
      vertex -1.60684 25.54 0
    endloop
  endfacet
  facet normal 0 0 -1
    outer loop
      vertex -4.79518 -25.1372 0
      vertex -3.20734 25.3887 0
      vertex -3.20734 -25.3887 0
    endloop
  endfacet
  facet normal 0 0 -1
    outer loop
      vertex -4.79518 -25.1372 0
      vertex -4.79518 25.1372 0
      vertex -3.20734 25.3887 0
    endloop
  endfacet
  facet normal 0 0 -1
    outer loop
      vertex -6.3641 -24.7865 0
      vertex -4.79518 25.1372 0
      vertex -4.79518 -25.1372 0
    endloop
  endfacet
  facet normal 0 0 -1
    outer loop
      vertex -6.3641 -24.7865 0
      vertex -6.3641 24.7865 0
      vertex -4.79518 25.1372 0
    endloop
  endfacet
  facet normal 0 0 -1
    outer loop
      vertex -7.9079 -24.338 0
      vertex -6.3641 24.7865 0
      vertex -6.3641 -24.7865 0
    endloop
  endfacet
  facet normal 0 0 -1
    outer loop
      vertex -7.9079 -24.338 0
      vertex -7.9079 24.338 0
      vertex -6.3641 24.7865 0
    endloop
  endfacet
  facet normal 0 0 -1
    outer loop
      vertex -9.42049 -23.7934 0
      vertex -7.9079 24.338 0
      vertex -7.9079 -24.338 0
    endloop
  endfacet
  facet normal 0 0 -1
    outer loop
      vertex -9.42049 -23.7934 0
      vertex -9.42049 23.7934 0
      vertex -7.9079 24.338 0
    endloop
  endfacet
  facet normal 0 0 -1
    outer loop
      vertex -10.8959 -23.155 0
      vertex -9.42049 23.7934 0
      vertex -9.42049 -23.7934 0
    endloop
  endfacet
  facet normal 0 0 -1
    outer loop
      vertex -10.8959 -23.155 0
      vertex -10.8959 23.155 0
      vertex -9.42049 23.7934 0
    endloop
  endfacet
  facet normal 0 0 -1
    outer loop
      vertex -12.3283 -22.4251 0
      vertex -10.8959 23.155 0
      vertex -10.8959 -23.155 0
    endloop
  endfacet
  facet normal 0 0 -1
    outer loop
      vertex -12.3283 -22.4251 0
      vertex -12.3283 22.4251 0
      vertex -10.8959 23.155 0
    endloop
  endfacet
  facet normal 0 0 -1
    outer loop
      vertex -13.7121 -21.6068 0
      vertex -12.3283 22.4251 0
      vertex -12.3283 -22.4251 0
    endloop
  endfacet
  facet normal 0 0 -1
    outer loop
      vertex -13.7121 -21.6068 0
      vertex -13.7121 21.6068 0
      vertex -12.3283 22.4251 0
    endloop
  endfacet
  facet normal 0 0 -1
    outer loop
      vertex -15.0417 -20.7031 0
      vertex -13.7121 21.6068 0
      vertex -13.7121 -21.6068 0
    endloop
  endfacet
  facet normal 0 0 -1
    outer loop
      vertex -15.0417 -20.7031 0
      vertex -15.0417 20.7031 0
      vertex -13.7121 21.6068 0
    endloop
  endfacet
  facet normal 0 0 -1
    outer loop
      vertex -16.312 -19.7178 0
      vertex -15.0417 20.7031 0
      vertex -15.0417 -20.7031 0
    endloop
  endfacet
  facet normal 0 0 -1
    outer loop
      vertex -16.312 -19.7178 0
      vertex -16.312 19.7178 0
      vertex -15.0417 20.7031 0
    endloop
  endfacet
  facet normal 0 0 -1
    outer loop
      vertex -17.5179 -18.6547 0
      vertex -16.312 19.7178 0
      vertex -16.312 -19.7178 0
    endloop
  endfacet
  facet normal 0 0 -1
    outer loop
      vertex -17.5179 -18.6547 0
      vertex -17.5179 18.6547 0
      vertex -16.312 19.7178 0
    endloop
  endfacet
  facet normal 0 0 -1
    outer loop
      vertex -18.6547 -17.5179 0
      vertex -17.5179 18.6547 0
      vertex -17.5179 -18.6547 0
    endloop
  endfacet
  facet normal 0 0 -1
    outer loop
      vertex -18.6547 -17.5179 0
      vertex -18.6547 17.5179 0
      vertex -17.5179 18.6547 0
    endloop
  endfacet
  facet normal 0 0 -1
    outer loop
      vertex -19.7178 -16.312 0
      vertex -18.6547 17.5179 0
      vertex -18.6547 -17.5179 0
    endloop
  endfacet
  facet normal 0 0 -1
    outer loop
      vertex -19.7178 -16.312 0
      vertex -19.7178 16.312 0
      vertex -18.6547 17.5179 0
    endloop
  endfacet
  facet normal 0 0 -1
    outer loop
      vertex -20.7031 -15.0417 0
      vertex -19.7178 16.312 0
      vertex -19.7178 -16.312 0
    endloop
  endfacet
  facet normal 0 0 -1
    outer loop
      vertex -20.7031 -15.0417 0
      vertex -20.7031 15.0417 0
      vertex -19.7178 16.312 0
    endloop
  endfacet
  facet normal 0 0 -1
    outer loop
      vertex -21.6068 -13.7121 0
      vertex -20.7031 15.0417 0
      vertex -20.7031 -15.0417 0
    endloop
  endfacet
  facet normal 0 0 -1
    outer loop
      vertex -21.6068 -13.7121 0
      vertex -21.6068 13.7121 0
      vertex -20.7031 15.0417 0
    endloop
  endfacet
  facet normal 0 0 -1
    outer loop
      vertex -22.4251 -12.3283 0
      vertex -21.6068 13.7121 0
      vertex -21.6068 -13.7121 0
    endloop
  endfacet
  facet normal 0 0 -1
    outer loop
      vertex -22.4251 -12.3283 0
      vertex -22.4251 12.3283 0
      vertex -21.6068 13.7121 0
    endloop
  endfacet
  facet normal 0 0 -1
    outer loop
      vertex -23.155 -10.8959 0
      vertex -22.4251 12.3283 0
      vertex -22.4251 -12.3283 0
    endloop
  endfacet
  facet normal 0 0 -1
    outer loop
      vertex -23.155 -10.8959 0
      vertex -23.155 10.8959 0
      vertex -22.4251 12.3283 0
    endloop
  endfacet
  facet normal 0 0 -1
    outer loop
      vertex -23.7934 -9.42049 0
      vertex -23.155 10.8959 0
      vertex -23.155 -10.8959 0
    endloop
  endfacet
  facet normal 0 0 -1
    outer loop
      vertex -23.7934 -9.42049 0
      vertex -23.7934 9.42049 0
      vertex -23.155 10.8959 0
    endloop
  endfacet
  facet normal 0 0 -1
    outer loop
      vertex -24.338 -7.9079 0
      vertex -23.7934 9.42049 0
      vertex -23.7934 -9.42049 0
    endloop
  endfacet
  facet normal 0 0 -1
    outer loop
      vertex -24.338 -7.9079 0
      vertex -24.338 7.9079 0
      vertex -23.7934 9.42049 0
    endloop
  endfacet
  facet normal 0 0 -1
    outer loop
      vertex -24.7865 -6.3641 0
      vertex -24.338 7.9079 0
      vertex -24.338 -7.9079 0
    endloop
  endfacet
  facet normal 0 0 -1
    outer loop
      vertex -24.7865 -6.3641 0
      vertex -24.7865 6.3641 0
      vertex -24.338 7.9079 0
    endloop
  endfacet
  facet normal 0 0 -1
    outer loop
      vertex -25.1372 -4.79518 0
      vertex -24.7865 6.3641 0
      vertex -24.7865 -6.3641 0
    endloop
  endfacet
  facet normal 0 0 -1
    outer loop
      vertex -25.1372 -4.79518 0
      vertex -25.1372 4.79518 0
      vertex -24.7865 6.3641 0
    endloop
  endfacet
  facet normal 0 0 -1
    outer loop
      vertex -25.3887 -3.20734 0
      vertex -25.1372 4.79518 0
      vertex -25.1372 -4.79518 0
    endloop
  endfacet
  facet normal 0 0 -1
    outer loop
      vertex -25.3887 -3.20734 0
      vertex -25.3887 3.20734 0
      vertex -25.1372 4.79518 0
    endloop
  endfacet
  facet normal 0 0 -1
    outer loop
      vertex -25.54 -1.60684 0
      vertex -25.3887 3.20734 0
      vertex -25.3887 -3.20734 0
    endloop
  endfacet
  facet normal 0 0 -1
    outer loop
      vertex -25.54 -1.60684 0
      vertex -25.54 1.60684 0
      vertex -25.3887 3.20734 0
    endloop
  endfacet
  facet normal 0 -0 -1
    outer loop
      vertex -25.54 1.60684 0
      vertex -25.54 -1.60684 0
      vertex -25.5905 0 0
    endloop
  endfacet
  facet normal 0.975916 0.218144 0
    outer loop
      vertex 25.1372 4.79518 6.35
      vertex 24.7865 6.3641 0
      vertex 24.7865 6.3641 6.35
    endloop
  endfacet
  facet normal 0.975916 0.218144 0
    outer loop
      vertex 24.7865 6.3641 0
      vertex 25.1372 4.79518 6.35
      vertex 25.1372 4.79518 0
    endloop
  endfacet
  facet normal 0.790156 0.612906 0
    outer loop
      vertex 19.8967 16.0814 6.35
      vertex 20.7031 15.0417 6.35
      vertex 19.8967 16.0814 5.55625
    endloop
  endfacet
  facet normal 0.790154 0.612908 0
    outer loop
      vertex 19.8967 16.0814 5.55625
      vertex 19.7178 16.312 0
      vertex 19.7178 16.312 5.55625
    endloop
  endfacet
  facet normal 0.790156 0.612906 -0
    outer loop
      vertex 20.7031 15.0417 0
      vertex 19.8967 16.0814 5.55625
      vertex 20.7031 15.0417 6.35
    endloop
  endfacet
  facet normal 0.790155 0.612907 -1.07695e-07
    outer loop
      vertex 19.8967 16.0814 5.55625
      vertex 20.7031 15.0417 0
      vertex 19.7178 16.312 0
    endloop
  endfacet
  facet normal 0.750111 0.661312 0
    outer loop
      vertex 19.7178 16.312 5.55625
      vertex 18.6547 17.5179 0
      vertex 18.6547 17.5179 5.55625
    endloop
  endfacet
  facet normal 0.750111 0.661312 0
    outer loop
      vertex 18.6547 17.5179 0
      vertex 19.7178 16.312 5.55625
      vertex 19.7178 16.312 0
    endloop
  endfacet
  facet normal 0.82708 0.562084 0
    outer loop
      vertex 21.6068 13.7121 6.35
      vertex 20.7031 15.0417 0
      vertex 20.7031 15.0417 6.35
    endloop
  endfacet
  facet normal 0.82708 0.562084 0
    outer loop
      vertex 20.7031 15.0417 0
      vertex 21.6068 13.7121 6.35
      vertex 21.6068 13.7121 0
    endloop
  endfacet
  facet normal 0.860766 0.509 -0
    outer loop
      vertex 21.6138 13.7001 5.55625
      vertex 21.6068 13.7121 6.35
      vertex 21.6138 13.7001 6.35
    endloop
  endfacet
  facet normal 0.860766 0.509 0
    outer loop
      vertex 21.6068 13.7121 6.35
      vertex 21.6138 13.7001 5.55625
      vertex 21.6068 13.7121 0
    endloop
  endfacet
  facet normal 0.860742 0.509041 1.20071e-07
    outer loop
      vertex 22.4251 12.3283 5.55625
      vertex 21.6068 13.7121 0
      vertex 21.6138 13.7001 5.55625
    endloop
  endfacet
  facet normal 0.860742 0.509041 0
    outer loop
      vertex 21.6068 13.7121 0
      vertex 22.4251 12.3283 5.55625
      vertex 22.4251 12.3283 0
    endloop
  endfacet
  facet normal 0.218144 0.975916 -0
    outer loop
      vertex 6.3641 24.7865 0
      vertex 4.79518 25.1372 6.35
      vertex 6.3641 24.7865 6.35
    endloop
  endfacet
  facet normal 0.218144 0.975916 0
    outer loop
      vertex 4.79518 25.1372 6.35
      vertex 6.3641 24.7865 0
      vertex 4.79518 25.1372 0
    endloop
  endfacet
  facet normal 0.094109 0.995562 -0
    outer loop
      vertex 3.20734 25.3887 0
      vertex 1.60684 25.54 6.35
      vertex 3.20734 25.3887 6.35
    endloop
  endfacet
  facet normal 0.094109 0.995562 0
    outer loop
      vertex 1.60684 25.54 6.35
      vertex 3.20734 25.3887 0
      vertex 1.60684 25.54 0
    endloop
  endfacet
  facet normal 0.397148 0.917755 0
    outer loop
      vertex 10.8959 23.155 5.55625
      vertex 10.8959 23.155 0
      vertex 10.7338 23.2251 5.55625
    endloop
  endfacet
  facet normal 0.397149 0.917754 -0
    outer loop
      vertex 10.7338 23.2251 5.55625
      vertex 9.42049 23.7934 6.35
      vertex 10.7338 23.2251 6.35
    endloop
  endfacet
  facet normal 0.397149 0.917754 3.19921e-08
    outer loop
      vertex 9.42049 23.7934 0
      vertex 10.7338 23.2251 5.55625
      vertex 10.8959 23.155 0
    endloop
  endfacet
  facet normal 0.397149 0.917754 0
    outer loop
      vertex 10.7338 23.2251 5.55625
      vertex 9.42049 23.7934 0
      vertex 9.42049 23.7934 6.35
    endloop
  endfacet
  facet normal 0.612907 0.790155 -0
    outer loop
      vertex 16.312 19.7178 0
      vertex 15.0417 20.7031 6.35
      vertex 16.312 19.7178 6.35
    endloop
  endfacet
  facet normal 0.612907 0.790155 0
    outer loop
      vertex 15.0417 20.7031 6.35
      vertex 16.312 19.7178 0
      vertex 15.0417 20.7031 0
    endloop
  endfacet
  facet normal 0.661312 0.750111 -0
    outer loop
      vertex 17.5179 18.6547 0
      vertex 16.312 19.7178 6.35
      vertex 17.5179 18.6547 6.35
    endloop
  endfacet
  facet normal 0.661312 0.750111 0
    outer loop
      vertex 16.312 19.7178 6.35
      vertex 17.5179 18.6547 0
      vertex 16.312 19.7178 0
    endloop
  endfacet
  facet normal -0.917754 0.397149 0
    outer loop
      vertex -23.7934 9.42049 0
      vertex -23.155 10.8959 6.35
      vertex -23.155 10.8959 0
    endloop
  endfacet
  facet normal -0.917754 0.397149 0
    outer loop
      vertex -23.155 10.8959 6.35
      vertex -23.7934 9.42049 0
      vertex -23.7934 9.42049 6.35
    endloop
  endfacet
  facet normal -0.975916 0.218144 0
    outer loop
      vertex -25.1372 4.79518 0
      vertex -24.7865 6.3641 6.35
      vertex -24.7865 6.3641 0
    endloop
  endfacet
  facet normal -0.975916 0.218144 0
    outer loop
      vertex -24.7865 6.3641 6.35
      vertex -25.1372 4.79518 0
      vertex -25.1372 4.79518 6.35
    endloop
  endfacet
  facet normal -0.995562 0.0941096 0
    outer loop
      vertex -25.3887 3.20734 0
      vertex -25.5223 1.79387 5.55625
      vertex -25.3887 3.20734 5.55625
    endloop
  endfacet
  facet normal -0.995562 0.094109 -1.59167e-07
    outer loop
      vertex -25.54 1.60684 0
      vertex -25.5223 1.79387 5.55625
      vertex -25.3887 3.20734 0
    endloop
  endfacet
  facet normal -0.995562 0.0941043 0
    outer loop
      vertex -25.54 1.60684 6.35
      vertex -25.5223 1.79387 5.55625
      vertex -25.54 1.60684 0
    endloop
  endfacet
  facet normal -0.995562 0.0941043 0
    outer loop
      vertex -25.5223 1.79387 5.55625
      vertex -25.54 1.60684 6.35
      vertex -25.5223 1.79387 6.35
    endloop
  endfacet
  facet normal -0.397149 0.917754 0
    outer loop
      vertex -9.42049 23.7934 6.35
      vertex -10.7338 23.2251 5.55625
      vertex -10.7338 23.2251 6.35
    endloop
  endfacet
  facet normal -0.397149 0.917754 0
    outer loop
      vertex -9.42049 23.7934 0
      vertex -10.7338 23.2251 5.55625
      vertex -9.42049 23.7934 6.35
    endloop
  endfacet
  facet normal -0.397149 0.917754 3.19921e-08
    outer loop
      vertex -10.8959 23.155 0
      vertex -10.7338 23.2251 5.55625
      vertex -9.42049 23.7934 0
    endloop
  endfacet
  facet normal -0.397148 0.917755 0
    outer loop
      vertex -10.7338 23.2251 5.55625
      vertex -10.8959 23.155 0
      vertex -10.8959 23.155 5.55625
    endloop
  endfacet
  facet normal -0.218144 0.975916 0
    outer loop
      vertex -4.79518 25.1372 0
      vertex -6.3641 24.7865 6.35
      vertex -4.79518 25.1372 6.35
    endloop
  endfacet
  facet normal -0.218144 0.975916 0
    outer loop
      vertex -6.3641 24.7865 6.35
      vertex -4.79518 25.1372 0
      vertex -6.3641 24.7865 0
    endloop
  endfacet
  facet normal -0.0314108 0.999507 0
    outer loop
      vertex 0 25.5905 0
      vertex -1.60684 25.54 6.35
      vertex 0 25.5905 6.35
    endloop
  endfacet
  facet normal -0.0314108 0.999507 0
    outer loop
      vertex -1.60684 25.54 6.35
      vertex 0 25.5905 0
      vertex -1.60684 25.54 0
    endloop
  endfacet
  facet normal 0.999507 -0.0314113 0
    outer loop
      vertex 25.572 -0.587375 5.55625
      vertex 25.5905 0 6.35
      vertex 25.572 -0.587375 6.35
    endloop
  endfacet
  facet normal 0.999507 -0.0314113 0
    outer loop
      vertex 25.5905 0 6.35
      vertex 25.572 -0.587375 5.55625
      vertex 25.5905 0 0
    endloop
  endfacet
  facet normal 0.999507 -0.0314105 0
    outer loop
      vertex 25.54 -1.60684 0
      vertex 25.572 -0.587375 5.55625
      vertex 25.54 -1.60684 5.55625
    endloop
  endfacet
  facet normal 0.999507 -0.0314108 5.42305e-08
    outer loop
      vertex 25.572 -0.587375 5.55625
      vertex 25.54 -1.60684 0
      vertex 25.5905 0 0
    endloop
  endfacet
  facet normal 0.0314108 -0.999507 0
    outer loop
      vertex 0 -25.5905 0
      vertex 1.60684 -25.54 5.55625
      vertex 0 -25.5905 5.55625
    endloop
  endfacet
  facet normal 0.0314108 -0.999507 0
    outer loop
      vertex 1.60684 -25.54 5.55625
      vertex 0 -25.5905 0
      vertex 1.60684 -25.54 0
    endloop
  endfacet
  facet normal 0.156433 -0.987689 0
    outer loop
      vertex 3.20734 -25.3887 0
      vertex 4.79518 -25.1372 5.55625
      vertex 3.20734 -25.3887 5.55625
    endloop
  endfacet
  facet normal 0.156433 -0.987689 0
    outer loop
      vertex 4.79518 -25.1372 5.55625
      vertex 3.20734 -25.3887 0
      vertex 4.79518 -25.1372 0
    endloop
  endfacet
  facet normal 0.338738 -0.940881 0
    outer loop
      vertex 7.9079 -24.338 0
      vertex 9.42049 -23.7934 6.35
      vertex 7.9079 -24.338 6.35
    endloop
  endfacet
  facet normal 0.338738 -0.940881 0
    outer loop
      vertex 9.42049 -23.7934 6.35
      vertex 7.9079 -24.338 0
      vertex 9.42049 -23.7934 0
    endloop
  endfacet
  facet normal 0.27899 -0.960294 0
    outer loop
      vertex 6.3641 -24.7865 5.55625
      vertex 6.3641 -24.7865 0
      vertex 7.69496 -24.3999 5.55625
    endloop
  endfacet
  facet normal 0.278991 -0.960294 0
    outer loop
      vertex 7.69496 -24.3999 5.55625
      vertex 7.9079 -24.338 6.35
      vertex 7.69496 -24.3999 6.35
    endloop
  endfacet
  facet normal 0.27899 -0.960294 -3.98325e-08
    outer loop
      vertex 7.9079 -24.338 0
      vertex 7.69496 -24.3999 5.55625
      vertex 6.3641 -24.7865 0
    endloop
  endfacet
  facet normal 0.278991 -0.960294 0
    outer loop
      vertex 7.69496 -24.3999 5.55625
      vertex 7.9079 -24.338 0
      vertex 7.9079 -24.338 6.35
    endloop
  endfacet
  facet normal 0.612907 -0.790155 0
    outer loop
      vertex 15.0417 -20.7031 0
      vertex 16.312 -19.7178 5.55625
      vertex 15.0417 -20.7031 5.55625
    endloop
  endfacet
  facet normal 0.612907 -0.790155 0
    outer loop
      vertex 16.312 -19.7178 5.55625
      vertex 15.0417 -20.7031 0
      vertex 16.312 -19.7178 0
    endloop
  endfacet
  facet normal 0.661314 -0.750109 0
    outer loop
      vertex 16.312 -19.7178 5.55625
      vertex 16.312 -19.7178 0
      vertex 16.4032 -19.6374 5.55625
    endloop
  endfacet
  facet normal 0.661312 -0.750111 0
    outer loop
      vertex 16.4032 -19.6374 5.55625
      vertex 17.5179 -18.6547 6.35
      vertex 16.4032 -19.6374 6.35
    endloop
  endfacet
  facet normal 0.661312 -0.750111 5.26089e-08
    outer loop
      vertex 17.5179 -18.6547 0
      vertex 16.4032 -19.6374 5.55625
      vertex 16.312 -19.7178 0
    endloop
  endfacet
  facet normal 0.661312 -0.750111 0
    outer loop
      vertex 16.4032 -19.6374 5.55625
      vertex 17.5179 -18.6547 0
      vertex 17.5179 -18.6547 6.35
    endloop
  endfacet
  facet normal 0.397149 -0.917754 0
    outer loop
      vertex 9.42049 -23.7934 0
      vertex 10.8959 -23.155 6.35
      vertex 9.42049 -23.7934 6.35
    endloop
  endfacet
  facet normal 0.397149 -0.917754 0
    outer loop
      vertex 10.8959 -23.155 6.35
      vertex 9.42049 -23.7934 0
      vertex 10.8959 -23.155 0
    endloop
  endfacet
  facet normal 0.827081 -0.562083 0
    outer loop
      vertex 20.8165 -14.8749 5.55625
      vertex 21.6068 -13.7121 6.35
      vertex 20.8165 -14.8749 6.35
    endloop
  endfacet
  facet normal 0.827081 -0.562083 0
    outer loop
      vertex 21.6068 -13.7121 6.35
      vertex 20.8165 -14.8749 5.55625
      vertex 21.6068 -13.7121 0
    endloop
  endfacet
  facet normal 0.827079 -0.562086 0
    outer loop
      vertex 20.7031 -15.0417 0
      vertex 20.8165 -14.8749 5.55625
      vertex 20.7031 -15.0417 5.55625
    endloop
  endfacet
  facet normal 0.82708 -0.562084 -9.48339e-08
    outer loop
      vertex 20.8165 -14.8749 5.55625
      vertex 20.7031 -15.0417 0
      vertex 21.6068 -13.7121 0
    endloop
  endfacet
  facet normal 0.75011 -0.661313 0
    outer loop
      vertex 18.8855 -17.2561 6.35
      vertex 18.6547 -17.5179 6.35
      vertex 18.8855 -17.2561 5.55625
    endloop
  endfacet
  facet normal 0.750111 -0.661312 0
    outer loop
      vertex 18.8855 -17.2561 5.55625
      vertex 19.7178 -16.312 0
      vertex 19.7178 -16.312 5.55625
    endloop
  endfacet
  facet normal 0.75011 -0.661313 0
    outer loop
      vertex 18.6547 -17.5179 0
      vertex 18.8855 -17.2561 5.55625
      vertex 18.6547 -17.5179 6.35
    endloop
  endfacet
  facet normal 0.750111 -0.661312 -9.45651e-08
    outer loop
      vertex 18.8855 -17.2561 5.55625
      vertex 18.6547 -17.5179 0
      vertex 19.7178 -16.312 0
    endloop
  endfacet
  facet normal 0.940881 -0.338738 0
    outer loop
      vertex 23.7934 -9.42049 6.35
      vertex 24.338 -7.9079 0
      vertex 24.338 -7.9079 6.35
    endloop
  endfacet
  facet normal 0.940881 -0.338738 0
    outer loop
      vertex 24.338 -7.9079 0
      vertex 23.7934 -9.42049 6.35
      vertex 23.7934 -9.42049 0
    endloop
  endfacet
  facet normal 0.917754 -0.39715 0
    outer loop
      vertex 23.494 -10.1124 5.55625
      vertex 23.7934 -9.42049 6.35
      vertex 23.494 -10.1124 6.35
    endloop
  endfacet
  facet normal 0.917754 -0.39715 0
    outer loop
      vertex 23.7934 -9.42049 6.35
      vertex 23.494 -10.1124 5.55625
      vertex 23.7934 -9.42049 0
    endloop
  endfacet
  facet normal 0.917755 -0.397148 0
    outer loop
      vertex 23.155 -10.8959 0
      vertex 23.494 -10.1124 5.55625
      vertex 23.155 -10.8959 5.55625
    endloop
  endfacet
  facet normal 0.917754 -0.397149 1.44759e-07
    outer loop
      vertex 23.494 -10.1124 5.55625
      vertex 23.155 -10.8959 0
      vertex 23.7934 -9.42049 0
    endloop
  endfacet
  facet normal 0.960294 -0.278989 0
    outer loop
      vertex 24.3894 -7.73112 6.35
      vertex 24.338 -7.9079 6.35
      vertex 24.3894 -7.73112 5.55625
    endloop
  endfacet
  facet normal 0.960294 -0.27899 0
    outer loop
      vertex 24.3894 -7.73112 5.55625
      vertex 24.7865 -6.3641 0
      vertex 24.7865 -6.3641 5.55625
    endloop
  endfacet
  facet normal 0.960294 -0.27899 9.31813e-09
    outer loop
      vertex 24.3894 -7.73112 5.55625
      vertex 24.338 -7.9079 0
      vertex 24.7865 -6.3641 0
    endloop
  endfacet
  facet normal 0.960294 -0.278989 0
    outer loop
      vertex 24.338 -7.9079 0
      vertex 24.3894 -7.73112 5.55625
      vertex 24.338 -7.9079 6.35
    endloop
  endfacet
  facet normal 0.975917 -0.218144 0
    outer loop
      vertex 25.0132 -5.34987 5.55625
      vertex 25.1372 -4.79518 6.35
      vertex 25.0132 -5.34987 6.35
    endloop
  endfacet
  facet normal 0.975917 -0.218144 0
    outer loop
      vertex 25.1372 -4.79518 6.35
      vertex 25.0132 -5.34987 5.55625
      vertex 25.1372 -4.79518 0
    endloop
  endfacet
  facet normal 0.975916 -0.218145 0
    outer loop
      vertex 24.7865 -6.3641 0
      vertex 25.0132 -5.34987 5.55625
      vertex 24.7865 -6.3641 5.55625
    endloop
  endfacet
  facet normal 0.975916 -0.218144 -4.00627e-08
    outer loop
      vertex 25.0132 -5.34987 5.55625
      vertex 24.7865 -6.3641 0
      vertex 25.1372 -4.79518 0
    endloop
  endfacet
  facet normal -0.562084 -0.82708 0
    outer loop
      vertex -15.0417 -20.7031 0
      vertex -13.7121 -21.6068 5.55625
      vertex -15.0417 -20.7031 5.55625
    endloop
  endfacet
  facet normal -0.562084 -0.82708 -0
    outer loop
      vertex -13.7121 -21.6068 5.55625
      vertex -15.0417 -20.7031 0
      vertex -13.7121 -21.6068 0
    endloop
  endfacet
  facet normal -0.453991 -0.891006 0
    outer loop
      vertex -12.3283 -22.4251 0
      vertex -10.8959 -23.155 6.35
      vertex -12.3283 -22.4251 6.35
    endloop
  endfacet
  facet normal -0.453991 -0.891006 -0
    outer loop
      vertex -10.8959 -23.155 6.35
      vertex -12.3283 -22.4251 0
      vertex -10.8959 -23.155 0
    endloop
  endfacet
  facet normal -0.509041 -0.860742 -0
    outer loop
      vertex -13.7121 -21.6068 5.55625
      vertex -13.7121 -21.6068 0
      vertex -13.0157 -22.0186 5.55625
    endloop
  endfacet
  facet normal -0.509041 -0.860742 0
    outer loop
      vertex -13.0157 -22.0186 5.55625
      vertex -12.3283 -22.4251 6.35
      vertex -13.0157 -22.0186 6.35
    endloop
  endfacet
  facet normal -0.509041 -0.860742 6.03244e-08
    outer loop
      vertex -12.3283 -22.4251 0
      vertex -13.0157 -22.0186 5.55625
      vertex -13.7121 -21.6068 0
    endloop
  endfacet
  facet normal -0.509041 -0.860742 0
    outer loop
      vertex -13.0157 -22.0186 5.55625
      vertex -12.3283 -22.4251 0
      vertex -12.3283 -22.4251 6.35
    endloop
  endfacet
  facet normal -0.278991 -0.960294 0
    outer loop
      vertex -7.9079 -24.338 6.35
      vertex -7.69496 -24.3999 5.55625
      vertex -7.69496 -24.3999 6.35
    endloop
  endfacet
  facet normal -0.278991 -0.960294 0
    outer loop
      vertex -7.9079 -24.338 0
      vertex -7.69496 -24.3999 5.55625
      vertex -7.9079 -24.338 6.35
    endloop
  endfacet
  facet normal -0.27899 -0.960294 -3.98325e-08
    outer loop
      vertex -6.3641 -24.7865 0
      vertex -7.69496 -24.3999 5.55625
      vertex -7.9079 -24.338 0
    endloop
  endfacet
  facet normal -0.27899 -0.960294 0
    outer loop
      vertex -7.69496 -24.3999 5.55625
      vertex -6.3641 -24.7865 0
      vertex -6.3641 -24.7865 5.55625
    endloop
  endfacet
  facet normal -0.094109 -0.995562 0
    outer loop
      vertex -3.20734 -25.3887 0
      vertex -1.60684 -25.54 5.55625
      vertex -3.20734 -25.3887 5.55625
    endloop
  endfacet
  facet normal -0.094109 -0.995562 -0
    outer loop
      vertex -1.60684 -25.54 5.55625
      vertex -3.20734 -25.3887 0
      vertex -1.60684 -25.54 0
    endloop
  endfacet
  facet normal -0.917754 -0.39715 0
    outer loop
      vertex -23.7934 -9.42049 0
      vertex -23.494 -10.1124 5.55625
      vertex -23.7934 -9.42049 6.35
    endloop
  endfacet
  facet normal -0.917754 -0.397149 1.44759e-07
    outer loop
      vertex -23.155 -10.8959 0
      vertex -23.494 -10.1124 5.55625
      vertex -23.7934 -9.42049 0
    endloop
  endfacet
  facet normal -0.917755 -0.397148 0
    outer loop
      vertex -23.494 -10.1124 5.55625
      vertex -23.155 -10.8959 0
      vertex -23.155 -10.8959 5.55625
    endloop
  endfacet
  facet normal -0.917754 -0.39715 0
    outer loop
      vertex -23.7934 -9.42049 6.35
      vertex -23.494 -10.1124 5.55625
      vertex -23.494 -10.1124 6.35
    endloop
  endfacet
  facet normal -0.790155 -0.612907 0
    outer loop
      vertex -19.7178 -16.312 0
      vertex -20.7031 -15.0417 5.55625
      vertex -20.7031 -15.0417 0
    endloop
  endfacet
  facet normal -0.790155 -0.612907 0
    outer loop
      vertex -20.7031 -15.0417 5.55625
      vertex -19.7178 -16.312 0
      vertex -19.7178 -16.312 5.55625
    endloop
  endfacet
  facet normal -0.891006 -0.453991 0
    outer loop
      vertex -22.4251 -12.3283 0
      vertex -23.155 -10.8959 5.55625
      vertex -23.155 -10.8959 0
    endloop
  endfacet
  facet normal -0.891006 -0.453991 0
    outer loop
      vertex -23.155 -10.8959 5.55625
      vertex -22.4251 -12.3283 0
      vertex -22.4251 -12.3283 5.55625
    endloop
  endfacet
  facet normal -0.975917 -0.218144 0
    outer loop
      vertex -25.1372 -4.79518 0
      vertex -25.0132 -5.34987 5.55625
      vertex -25.1372 -4.79518 6.35
    endloop
  endfacet
  facet normal -0.975916 -0.218144 -4.00627e-08
    outer loop
      vertex -24.7865 -6.3641 0
      vertex -25.0132 -5.34987 5.55625
      vertex -25.1372 -4.79518 0
    endloop
  endfacet
  facet normal -0.975916 -0.218145 0
    outer loop
      vertex -25.0132 -5.34987 5.55625
      vertex -24.7865 -6.3641 0
      vertex -24.7865 -6.3641 5.55625
    endloop
  endfacet
  facet normal -0.975917 -0.218144 0
    outer loop
      vertex -25.1372 -4.79518 6.35
      vertex -25.0132 -5.34987 5.55625
      vertex -25.0132 -5.34987 6.35
    endloop
  endfacet
  facet normal -0.960294 -0.27899 0
    outer loop
      vertex -24.7865 -6.3641 0
      vertex -24.3894 -7.73112 5.55625
      vertex -24.7865 -6.3641 5.55625
    endloop
  endfacet
  facet normal -0.960294 -0.27899 9.31813e-09
    outer loop
      vertex -24.338 -7.9079 0
      vertex -24.3894 -7.73112 5.55625
      vertex -24.7865 -6.3641 0
    endloop
  endfacet
  facet normal -0.960294 -0.278989 -0
    outer loop
      vertex -24.338 -7.9079 6.35
      vertex -24.3894 -7.73112 5.55625
      vertex -24.338 -7.9079 0
    endloop
  endfacet
  facet normal -0.960294 -0.278989 0
    outer loop
      vertex -24.3894 -7.73112 5.55625
      vertex -24.338 -7.9079 6.35
      vertex -24.3894 -7.73112 6.35
    endloop
  endfacet
  facet normal -0.987689 -0.156433 0
    outer loop
      vertex -25.1372 -4.79518 0
      vertex -25.3887 -3.20734 6.35
      vertex -25.3887 -3.20734 0
    endloop
  endfacet
  facet normal -0.987689 -0.156433 0
    outer loop
      vertex -25.3887 -3.20734 6.35
      vertex -25.1372 -4.79518 0
      vertex -25.1372 -4.79518 6.35
    endloop
  endfacet
  facet normal -0.999507 -0.0314113 0
    outer loop
      vertex -25.5905 0 0
      vertex -25.572 -0.587375 5.55625
      vertex -25.5905 0 6.35
    endloop
  endfacet
  facet normal -0.999507 -0.0314108 5.42305e-08
    outer loop
      vertex -25.54 -1.60684 0
      vertex -25.572 -0.587375 5.55625
      vertex -25.5905 0 0
    endloop
  endfacet
  facet normal -0.999507 -0.0314105 0
    outer loop
      vertex -25.572 -0.587375 5.55625
      vertex -25.54 -1.60684 0
      vertex -25.54 -1.60684 5.55625
    endloop
  endfacet
  facet normal -0.999507 -0.0314113 0
    outer loop
      vertex -25.5905 0 6.35
      vertex -25.572 -0.587375 5.55625
      vertex -25.572 -0.587375 6.35
    endloop
  endfacet
  facet normal 0.940881 0.338736 -0
    outer loop
      vertex 23.9673 8.93762 5.55625
      vertex 23.7934 9.42049 6.35
      vertex 23.9673 8.93762 6.35
    endloop
  endfacet
  facet normal 0.940881 0.338736 0
    outer loop
      vertex 23.7934 9.42049 6.35
      vertex 23.9673 8.93762 5.55625
      vertex 23.7934 9.42049 0
    endloop
  endfacet
  facet normal 0.94088 0.338739 -0
    outer loop
      vertex 24.338 7.9079 0
      vertex 23.9673 8.93762 5.55625
      vertex 24.338 7.9079 5.55625
    endloop
  endfacet
  facet normal 0.940881 0.338738 2.03333e-07
    outer loop
      vertex 23.9673 8.93762 5.55625
      vertex 24.338 7.9079 0
      vertex 23.7934 9.42049 0
    endloop
  endfacet
  facet normal 0.453991 0.891006 -0
    outer loop
      vertex 12.3283 22.4251 0
      vertex 10.8959 23.155 5.55625
      vertex 12.3283 22.4251 5.55625
    endloop
  endfacet
  facet normal 0.453991 0.891006 0
    outer loop
      vertex 10.8959 23.155 5.55625
      vertex 12.3283 22.4251 0
      vertex 10.8959 23.155 0
    endloop
  endfacet
  facet normal -0.790154 0.612908 0
    outer loop
      vertex -19.7178 16.312 0
      vertex -19.8967 16.0814 5.55625
      vertex -19.7178 16.312 5.55625
    endloop
  endfacet
  facet normal -0.790155 0.612907 -1.07695e-07
    outer loop
      vertex -20.7031 15.0417 0
      vertex -19.8967 16.0814 5.55625
      vertex -19.7178 16.312 0
    endloop
  endfacet
  facet normal -0.790156 0.612906 0
    outer loop
      vertex -20.7031 15.0417 6.35
      vertex -19.8967 16.0814 5.55625
      vertex -20.7031 15.0417 0
    endloop
  endfacet
  facet normal -0.790156 0.612906 0
    outer loop
      vertex -19.8967 16.0814 5.55625
      vertex -20.7031 15.0417 6.35
      vertex -19.8967 16.0814 6.35
    endloop
  endfacet
  facet normal -0.891006 0.453991 0
    outer loop
      vertex -22.4251 12.3283 0
      vertex -22.9395 11.3189 5.55625
      vertex -22.4251 12.3283 5.55625
    endloop
  endfacet
  facet normal -0.891006 0.453991 -1.20833e-07
    outer loop
      vertex -23.155 10.8959 0
      vertex -22.9395 11.3189 5.55625
      vertex -22.4251 12.3283 0
    endloop
  endfacet
  facet normal -0.891007 0.453989 0
    outer loop
      vertex -23.155 10.8959 6.35
      vertex -22.9395 11.3189 5.55625
      vertex -23.155 10.8959 0
    endloop
  endfacet
  facet normal -0.891007 0.453989 0
    outer loop
      vertex -22.9395 11.3189 5.55625
      vertex -23.155 10.8959 6.35
      vertex -22.9395 11.3189 6.35
    endloop
  endfacet
  facet normal -0.612907 0.790155 0
    outer loop
      vertex -15.0417 20.7031 0
      vertex -16.312 19.7178 6.35
      vertex -15.0417 20.7031 6.35
    endloop
  endfacet
  facet normal -0.612907 0.790155 0
    outer loop
      vertex -16.312 19.7178 6.35
      vertex -15.0417 20.7031 0
      vertex -16.312 19.7178 0
    endloop
  endfacet
  facet normal 0.094109 -0.995562 0
    outer loop
      vertex 1.60684 -25.54 0
      vertex 3.20734 -25.3887 5.55625
      vertex 1.60684 -25.54 5.55625
    endloop
  endfacet
  facet normal 0.094109 -0.995562 0
    outer loop
      vertex 3.20734 -25.3887 5.55625
      vertex 1.60684 -25.54 0
      vertex 3.20734 -25.3887 0
    endloop
  endfacet
  facet normal 0.453991 -0.891006 0
    outer loop
      vertex 10.8959 -23.155 0
      vertex 12.3283 -22.4251 6.35
      vertex 10.8959 -23.155 6.35
    endloop
  endfacet
  facet normal 0.453991 -0.891006 0
    outer loop
      vertex 12.3283 -22.4251 6.35
      vertex 10.8959 -23.155 0
      vertex 12.3283 -22.4251 0
    endloop
  endfacet
  facet normal 0.562084 -0.82708 0
    outer loop
      vertex 13.7121 -21.6068 0
      vertex 15.0417 -20.7031 5.55625
      vertex 13.7121 -21.6068 5.55625
    endloop
  endfacet
  facet normal 0.562084 -0.82708 0
    outer loop
      vertex 15.0417 -20.7031 5.55625
      vertex 13.7121 -21.6068 0
      vertex 15.0417 -20.7031 0
    endloop
  endfacet
  facet normal 0.860742 -0.509042 0
    outer loop
      vertex 22.3274 -12.4936 6.35
      vertex 21.6068 -13.7121 6.35
      vertex 22.3274 -12.4936 5.55625
    endloop
  endfacet
  facet normal 0.860746 -0.509035 0
    outer loop
      vertex 22.3274 -12.4936 5.55625
      vertex 22.4251 -12.3283 0
      vertex 22.4251 -12.3283 5.55625
    endloop
  endfacet
  facet normal 0.860742 -0.509042 0
    outer loop
      vertex 21.6068 -13.7121 0
      vertex 22.3274 -12.4936 5.55625
      vertex 21.6068 -13.7121 6.35
    endloop
  endfacet
  facet normal 0.860742 -0.509041 -2.52654e-07
    outer loop
      vertex 22.3274 -12.4936 5.55625
      vertex 21.6068 -13.7121 0
      vertex 22.4251 -12.3283 0
    endloop
  endfacet
  facet normal -0.612907 -0.790155 0
    outer loop
      vertex -16.312 -19.7178 0
      vertex -15.0417 -20.7031 5.55625
      vertex -16.312 -19.7178 5.55625
    endloop
  endfacet
  facet normal -0.612907 -0.790155 -0
    outer loop
      vertex -15.0417 -20.7031 5.55625
      vertex -16.312 -19.7178 0
      vertex -15.0417 -20.7031 0
    endloop
  endfacet
  facet normal -0.0314108 -0.999507 0
    outer loop
      vertex -1.60684 -25.54 0
      vertex 0 -25.5905 5.55625
      vertex -1.60684 -25.54 5.55625
    endloop
  endfacet
  facet normal -0.0314108 -0.999507 -0
    outer loop
      vertex 0 -25.5905 5.55625
      vertex -1.60684 -25.54 0
      vertex 0 -25.5905 0
    endloop
  endfacet
  facet normal -0.995562 -0.0941087 0
    outer loop
      vertex -25.54 -1.60684 0
      vertex -25.4113 -2.96862 5.55625
      vertex -25.54 -1.60684 5.55625
    endloop
  endfacet
  facet normal -0.995562 -0.094109 -8.10003e-08
    outer loop
      vertex -25.3887 -3.20734 0
      vertex -25.4113 -2.96862 5.55625
      vertex -25.54 -1.60684 0
    endloop
  endfacet
  facet normal -0.995562 -0.0941109 -0
    outer loop
      vertex -25.3887 -3.20734 6.35
      vertex -25.4113 -2.96862 5.55625
      vertex -25.3887 -3.20734 0
    endloop
  endfacet
  facet normal -0.995562 -0.0941109 0
    outer loop
      vertex -25.4113 -2.96862 5.55625
      vertex -25.3887 -3.20734 6.35
      vertex -25.4113 -2.96862 6.35
    endloop
  endfacet
  facet normal 0.790155 -0.612907 0
    outer loop
      vertex 19.7178 -16.312 5.55625
      vertex 20.7031 -15.0417 0
      vertex 20.7031 -15.0417 5.55625
    endloop
  endfacet
  facet normal 0.790155 -0.612907 0
    outer loop
      vertex 20.7031 -15.0417 0
      vertex 19.7178 -16.312 5.55625
      vertex 19.7178 -16.312 0
    endloop
  endfacet
endsolid OpenSCAD_Model
